<svg width="18" height="20" viewBox="0 0 18 20" fill="none" xmlns="http://www.w3.org/2000/svg">
<path fill-rule="evenodd" clip-rule="evenodd" d="M11 16C11 17.1045 10.1046 18 9 18C7.89544 18 6.99998 17.1045 6.99998 16H11ZM9 0C5.13 0 2.00002 3.57998 2.00002 8.00002V10.29L0 16H5.00002C5.00002 18.2092 6.79087 20 9 20C11.2091 20 13 18.2092 13 16H18L16 10.29V8.28998C16 4.5 13.79 1.02998 10.55 0.290016C10.047 0.130812 9.52653 0.0334239 9 0ZM2.82 14L3.89002 11L3.99998 10.63V8.00002C3.99998 4.68998 6.24 2.00002 9 2.00002C9.36065 1.99939 9.72001 2.04305 10.07 2.13C12.31 2.67998 14 5.31 14 8.24002V10.63L14.11 10.95L15.18 14H2.82Z" fill="#0A0A0A"/>
</svg>
