<svg xmlns="http://www.w3.org/2000/svg" width="24" height="24" viewBox="0 0 24 24" fill="none">
<path fill-rule="evenodd" clip-rule="evenodd" d="M2.33493 0.175463C3.08053 0.0778649 4.1344 0 5.6 0C7.0656 0 8.11947 0.0778649 8.86507 0.175463C10.1984 0.349326 11.0501 1.40957 11.1264 2.66981C11.168 3.34713 11.2 4.29324 11.2 5.59988C11.2 6.90651 11.168 7.85316 11.1269 8.52994C11.0501 9.79018 10.1979 10.8504 8.86507 11.0243C8.11947 11.1219 7.0656 11.1998 5.6 11.1998C4.1344 11.1998 3.08053 11.1219 2.33493 11.0243C1.0016 10.8504 0.149867 9.79018 0.0736 8.52994C0.032 7.85263 0 6.90651 0 5.59988C0 4.29324 0.032 3.34659 0.0730667 2.66981C0.149867 1.40957 1.00267 0.349326 2.33493 0.175996M2.33493 23.8245C3.08053 23.9221 4.1344 24 5.6 24C7.0656 24 8.11947 23.9221 8.86507 23.8245C10.1984 23.6507 11.0501 22.5904 11.1264 21.3302C11.168 20.6529 11.2 19.7068 11.2 18.4001C11.2 17.0935 11.168 16.1468 11.1269 15.4701C11.0501 14.2098 10.1979 13.1496 8.86507 12.9757C8.11947 12.8781 7.0656 12.8002 5.6 12.8002C4.1344 12.8002 3.08053 12.8781 2.33493 12.9757C1.0016 13.1496 0.149867 14.2098 0.0736 15.4701C0.032 16.1468 0 17.093 0 18.3996C0 19.7062 0.032 20.6529 0.0730667 21.3297C0.149867 22.5899 1.00213 23.6507 2.33493 23.8245ZM24 5.59988C24 4.13431 23.9221 3.08046 23.8245 2.33488C23.6507 1.00158 22.5904 0.149863 21.3301 0.0735984C20.6528 0.0319993 19.7067 0 18.4 0C17.0933 0 16.1467 0.0319993 15.4699 0.073065C14.2096 0.149863 13.1493 1.00211 12.9755 2.33488C12.8779 3.08046 12.8 4.13431 12.8 5.59988C12.8 7.06544 12.8779 8.11929 12.9755 8.86487C13.1493 10.1982 14.2096 11.0499 15.4699 11.1262C16.1472 11.1678 17.0933 11.1998 18.4 11.1998C19.7067 11.1998 20.6533 11.1678 21.3301 11.1267C22.5904 11.0499 23.6507 10.1976 23.8245 8.86487C23.9221 8.11929 24 7.06544 24 5.59988ZM17.6816 12.8397C17.8837 12.8157 18.1221 12.7997 18.4 12.7997C18.6779 12.7997 18.9168 12.8157 19.1184 12.8397C19.8075 12.9224 20.1851 13.5197 20.208 14.1368C20.2272 14.645 20.2475 15.4162 20.2581 16.5415C21.3835 16.5522 22.1547 16.5724 22.6629 16.5916C23.28 16.614 23.8773 16.9922 23.96 17.6812C23.984 17.8833 24 18.1217 24 18.3996C24 18.6775 23.984 18.9164 23.96 19.118C23.8773 19.807 23.28 20.1846 22.6629 20.2076C22.1547 20.2268 21.3835 20.247 20.2581 20.2577C20.2475 21.383 20.2272 22.1542 20.208 22.6624C20.1856 23.2795 19.8075 23.8768 19.1184 23.9595C18.9163 23.9835 18.6779 23.9995 18.4 23.9995C18.1221 23.9995 17.8837 23.9835 17.6816 23.9595C16.9925 23.8768 16.6149 23.2795 16.592 22.6624C16.5728 22.1542 16.5525 21.383 16.5419 20.2577C15.4165 20.247 14.6453 20.2268 14.1371 20.2076C13.52 20.1852 12.9227 19.807 12.84 19.118C12.816 18.9158 12.8 18.6775 12.8 18.3996C12.8 18.1217 12.816 17.8833 12.84 17.6812C12.9227 16.9922 13.52 16.6146 14.1371 16.5916C14.6453 16.5724 15.4165 16.5522 16.5419 16.5415C16.5525 15.4162 16.5728 14.645 16.592 14.1368C16.6144 13.5197 16.9925 12.9224 17.6816 12.8397Z" fill="#2E6136"/>
</svg>