<svg width="36" height="36" viewBox="0 0 36 36" fill="none" xmlns="http://www.w3.org/2000/svg">
<path d="M19.609 17.9944L13.4076 11.7929C13.1967 11.582 13.0946 11.3359 13.1013 11.0547C13.1081 10.7734 13.2172 10.5273 13.4287 10.3164C13.6402 10.1055 13.8863 10 14.167 10C14.4477 10 14.6937 10.1055 14.9052 10.3164L21.402 16.792C21.5707 16.9608 21.6973 17.1506 21.7816 17.3616C21.866 17.5725 21.9082 17.7834 21.9082 17.9944C21.9082 18.2053 21.866 18.4162 21.7816 18.6272C21.6973 18.8381 21.5707 19.0279 21.402 19.1967L14.9052 25.6934C14.6943 25.9043 14.4446 26.0064 14.156 25.9997C13.8674 25.9929 13.618 25.8838 13.4076 25.6723C13.1972 25.4608 13.0918 25.2147 13.0912 24.9341C13.0906 24.6534 13.1961 24.4073 13.4076 24.1958L19.609 17.9944Z" fill="#5E5E5D"/>
</svg>
