<svg width="14" height="14" viewBox="0 0 14 14" fill="none" xmlns="http://www.w3.org/2000/svg">
<path fill-rule="evenodd" clip-rule="evenodd" d="M13.7838 0.216078C13.9221 0.354475 13.9999 0.542155 13.9999 0.737848C13.9999 0.933541 13.9221 1.12122 13.7838 1.25962L5.48711 9.55702C5.41173 9.63244 5.32222 9.69227 5.2237 9.73309C5.12518 9.77391 5.01958 9.79492 4.91294 9.79492C4.8063 9.79492 4.70071 9.77391 4.60219 9.73309C4.50367 9.69227 4.41416 9.63244 4.33878 9.55702L0.216277 5.43452C0.147709 5.36595 0.0933175 5.28455 0.0562086 5.19496C0.0190997 5.10537 7.22484e-10 5.00935 0 4.91238C-7.22484e-10 4.81541 0.0190997 4.71939 0.0562086 4.6298C0.0933175 4.54021 0.147709 4.45881 0.216277 4.39024C0.284845 4.32167 0.366248 4.26728 0.455836 4.23017C0.545425 4.19306 0.641446 4.17396 0.738416 4.17396C0.835386 4.17396 0.931407 4.19306 1.021 4.23017C1.11058 4.26728 1.19199 4.32167 1.26056 4.39024L4.91368 8.04337L12.7395 0.216078C12.8779 0.0777235 13.0656 0 13.2613 0C13.457 0 13.6454 0.0777235 13.7838 0.216078Z" fill="#F76073"/>
</svg>
