<svg width="90" height="90" viewBox="0 0 90 90" fill="none" xmlns="http://www.w3.org/2000/svg">
<path opacity="0.7" d="M22.1834 17.2114C23.9849 23.0093 30.0647 26.2066 35.8627 24.4052C41.6607 22.6037 44.858 16.5239 43.0565 10.726L41.2551 4.92809L55.9433 0.364341C57.9935 -0.272657 60.2134 -0.0691234 62.1136 0.930071C64.0138 1.92933 65.4394 3.64318 66.0765 5.69333L70.8802 21.1537L76.6781 19.3523C79.2407 18.556 82.0154 18.8107 84.3905 20.0596C86.7657 21.3086 88.5476 23.4506 89.344 26.0132C90.1403 28.5759 89.8858 31.3504 88.6367 33.7256C87.3875 36.1008 85.2459 37.8828 82.6831 38.6791L76.8852 40.4806L81.6892 55.9419C82.3261 57.992 82.1223 60.2112 81.1231 62.1113C80.1239 64.0114 78.4109 65.4368 76.3608 66.0739L60.8986 70.8781L62.7 76.676C63.4963 79.2388 63.2418 82.0133 61.9927 84.3885C60.7435 86.7637 58.602 88.5456 56.0391 89.342C53.4763 90.1382 50.7019 89.8837 48.3266 88.6347C45.9515 87.3855 44.1694 85.2437 43.3732 82.681L41.5717 76.8832L26.1104 81.6871C24.0601 82.3242 21.8403 82.1207 19.9401 81.1214C18.0401 80.1221 16.6144 78.4091 15.9775 76.3591L11.607 62.2929L11.6023 62.2944L4.57356 39.6727L4.57822 39.6712L0.364506 26.1096C-0.272244 24.0596 -0.0685999 21.8401 0.930526 19.9402C1.92989 18.0401 3.64355 16.6143 5.69379 15.9773L20.382 11.4135L22.1834 17.2114Z" fill="#5D6DC7"/>
</svg>
