<svg width="16" height="16" viewBox="0 0 16 16" fill="none" xmlns="http://www.w3.org/2000/svg">
<path d="M15 8.00013C15 6.5375 14.5419 5.1116 13.69 3.9227C12.838 2.73379 11.6351 1.84162 10.25 1.37148C8.86504 0.901338 7.36755 0.876848 5.9679 1.30145C4.56826 1.72605 3.33677 2.57841 2.44641 3.73882C1.55605 4.89923 1.05154 6.30938 1.00374 7.77123C0.955941 9.23308 1.36725 10.6732 2.17991 11.8893C2.99256 13.1054 4.16573 14.0364 5.53465 14.5515C6.90357 15.0666 8.39946 15.14 9.81222 14.7613" stroke="#0A0A0A" stroke-width="2" stroke-linecap="round"/>
<path d="M7.99978 11.1109C9.718 11.1109 11.1109 9.718 11.1109 7.99978C11.1109 6.28156 9.718 4.88867 7.99978 4.88867C6.28156 4.88867 4.88867 6.28156 4.88867 7.99978C4.88867 9.718 6.28156 11.1109 7.99978 11.1109Z" stroke="#0A0A0A" stroke-width="2"/>
<path d="M11.1113 5.66699V9.16699C11.1113 9.68269 11.3162 10.1773 11.6808 10.5419C12.0455 10.9066 12.5401 11.1114 13.0558 11.1114C13.5715 11.1114 14.066 10.9066 14.4307 10.5419C14.7954 10.1773 15.0002 9.68269 15.0002 9.16699V8.00033" stroke="#0A0A0A" stroke-width="2" stroke-linecap="round"/>
</svg>
