<svg width="90" height="90" viewBox="0 0 90 90" fill="none" xmlns="http://www.w3.org/2000/svg">
<path opacity="0.7" d="M21.9989 71.7095C23.96 65.9636 30.1264 62.9357 35.8728 64.8971C41.6192 66.8584 44.6476 73.0244 42.6865 78.7703L40.7254 84.5162L55.2827 89.4847C57.3148 90.1782 59.5391 90.0361 61.4664 89.0898C63.3935 88.1435 64.8657 86.4706 65.5592 84.4389L70.7888 69.1163L76.5356 71.0777C79.0755 71.9445 81.8558 71.7668 84.2647 70.5839C86.6737 69.401 88.5141 67.3094 89.3809 64.7696C90.2477 62.2297 90.0703 59.4495 88.8871 57.0405C87.704 54.6316 85.6119 52.7909 83.0718 51.924L77.326 49.9629L82.5557 34.6403C83.2491 32.6085 83.106 30.3844 82.1596 28.4573C81.213 26.5302 79.5397 25.0578 77.5077 24.3642L62.1842 19.1342L64.1456 13.3875C65.0123 10.8479 64.8344 8.06807 63.6515 5.6593C62.4684 3.25031 60.3763 1.40973 57.8363 0.542772C55.2964 -0.32406 52.5164 -0.147099 50.1075 1.03561C47.6985 2.21849 45.8582 4.31021 44.9913 6.84997L43.0302 12.5958L27.7058 7.36551C25.6738 6.67207 23.4493 6.81411 21.5222 7.76039C19.595 8.70674 18.1225 10.3804 17.4291 12.4123L12.4609 26.9686L12.4618 26.9689L0.43379 62.2102C-0.259681 64.242 -0.117841 66.4666 0.828675 68.3938C1.77521 70.3208 3.44861 71.7933 5.48053 72.4869L20.0378 77.4554L21.9989 71.7095Z" fill="#82D3CA"/>
</svg>
