<svg width="20" height="21" viewBox="0 0 20 21" fill="none" xmlns="http://www.w3.org/2000/svg">
<path d="M6.5 0C4.92 0 3.6 1.06 3.16 2.5H0V4.5H3.16C3.59 5.94 4.92 7 6.5 7C8.08 7 9.4 5.94 9.84 4.5H20V2.5H9.84C9.62605 1.77958 9.18559 1.14731 8.58394 0.696975C7.98229 0.246641 7.25151 0.00223148 6.5 0ZM6.5 5C5.67 5 5 4.33 5 3.5C5 2.67 5.67 2 6.5 2C7.33 2 8 2.67 8 3.5C8 4.33 7.33 5 6.5 5ZM6.5 14C4.92 14 3.6 15.06 3.16 16.5H0V18.5H3.16C3.59 19.94 4.92 21 6.5 21C8.08 21 9.4 19.94 9.84 18.5H20V16.5H9.84C9.62605 15.7796 9.18559 15.1473 8.58394 14.697C7.98229 14.2466 7.25151 14.0022 6.5 14ZM6.5 19C5.67 19 5 18.33 5 17.5C5 16.67 5.67 16 6.5 16C7.33 16 8 16.67 8 17.5C8 18.33 7.33 19 6.5 19ZM14.5 7C12.92 7 11.6 8.06 11.16 9.5H0V11.5H11.16C11.59 12.94 12.92 14 14.5 14C16.08 14 17.4 12.94 17.84 11.5H20V9.5H17.84C17.6261 8.77958 17.1856 8.14731 16.5839 7.69698C15.9823 7.24664 15.2515 7.00223 14.5 7ZM14.5 12C13.67 12 13 11.33 13 10.5C13 9.67 13.67 9 14.5 9C15.33 9 16 9.67 16 10.5C16 11.33 15.33 12 14.5 12Z" fill="#0A0A0A"/>
</svg>
