<svg width="90" height="90" viewBox="0 0 90 90" fill="none" xmlns="http://www.w3.org/2000/svg">
<path opacity="0.7" d="M41.682 11.6003C39.5505 17.2851 42.3931 23.5387 48.0778 25.6704C53.7626 27.8019 60.0161 24.9593 62.1479 19.2746L64.2796 13.5898L78.6812 18.9902C80.6912 19.744 82.3199 21.2648 83.2083 23.219C84.0968 25.1735 84.1723 27.4014 83.4185 29.4117L77.7339 44.5713L83.4187 46.703C85.9315 47.6453 87.9672 49.5473 89.0778 51.9904C90.1884 54.4336 90.283 57.2179 89.3407 59.7308C88.3984 62.2437 86.4964 64.2793 84.0533 65.3899C81.6101 66.5005 78.8258 66.5951 76.3129 65.6528L70.6281 63.5211L64.9436 78.6808C64.1897 80.6911 62.668 82.32 60.7135 83.2085C58.759 84.0969 56.531 84.1724 54.5208 83.4187L39.3621 77.7344L37.2304 83.4192C36.2881 85.9319 34.386 87.9677 31.9429 89.0783C29.4999 90.1888 26.7154 90.2833 24.2026 89.3412C21.6898 88.399 19.6541 86.4968 18.5435 84.0538C17.4329 81.6106 17.3383 78.8262 18.2806 76.3134L20.4122 70.6286L5.25256 64.9441C3.24227 64.1902 1.61337 62.6685 0.724915 60.714C-0.163479 58.7595 -0.238171 56.5319 0.51564 54.5216L5.68692 40.7308L5.68235 40.7291L13.9995 18.5487L14.0041 18.5505L18.9906 5.25248C19.7444 3.24224 21.2659 1.6142 23.2203 0.725747C25.1748 -0.162708 27.4018 -0.238569 29.4121 0.515215L43.8137 5.91554L41.682 11.6003Z" fill="#A6CCF4"/>
</svg>
