<svg width="25" height="25" viewBox="0 0 25 25" fill="none" xmlns="http://www.w3.org/2000/svg">
<path d="M0 10.3453C0 9.55839 0.370526 8.81738 1.0001 8.34525L11.4617 0.49989C12.3809 -0.189471 13.6517 -0.163487 14.542 0.562875L24.0804 8.34498C24.6623 8.81976 25 9.53102 25 10.2821V21.8264C25 23.2071 23.8807 24.3264 22.5 24.3264H20.8116C19.4309 24.3264 18.3116 23.2071 18.3116 21.8264V17.4496C18.3116 16.0689 17.1923 14.9496 15.8116 14.9496H9.09095C7.71024 14.9496 6.59095 16.0689 6.59095 17.4496V21.8264C6.59095 23.2071 5.47166 24.3264 4.09095 24.3264H2.5C1.11929 24.3264 0 23.2071 0 21.8264V10.3453Z" fill="#A4A4A4"/>
</svg>
