<svg width="15" height="14" viewBox="0 0 15 14" fill="none" xmlns="http://www.w3.org/2000/svg">
<path d="M7.4168 0C11.5141 0 14.8336 2.61906 14.8336 5.84846C14.8336 9.07786 11.5141 11.6969 7.4168 11.6969C6.96613 11.6969 6.52575 11.666 6.09826 11.6042C5.67076 11.9055 3.1985 13.6412 2.96414 13.6747C2.96414 13.6747 2.86886 13.7108 2.78645 13.6644C2.70404 13.6181 2.71949 13.4919 2.71949 13.4919C2.74525 13.3219 3.36331 11.1947 3.47663 10.8007C1.38807 9.76803 0 7.93443 0 5.84588C0 2.61648 3.31953 0 7.4168 0ZM2.21989 4.09984C1.98811 4.09984 1.80012 4.28784 1.80012 4.51961C1.80012 4.75139 1.98811 4.93938 2.21989 4.93938H2.88689V7.48118C2.88689 7.70781 3.08003 7.89065 3.31438 7.89065C3.54873 7.89065 3.74188 7.70781 3.74188 7.48118V4.93938H4.40888C4.64065 4.93938 4.82865 4.75139 4.82865 4.51961C4.82865 4.28784 4.64065 4.09984 4.40888 4.09984H2.21731H2.21989ZM5.84588 4.09984C5.56775 4.10499 5.34885 4.31617 5.27674 4.52219L4.25436 7.21593C4.1256 7.62025 4.23891 7.76961 4.35479 7.82369C4.4372 7.86232 4.53249 7.88293 4.62777 7.88293C4.80547 7.88293 4.94196 7.81082 4.98316 7.69493L5.19434 7.13867H6.5L6.71117 7.69236C6.75238 7.80824 6.88887 7.88035 7.06656 7.88035C7.16185 7.88035 7.25456 7.85975 7.33954 7.82112C7.458 7.76704 7.57132 7.61767 7.43998 7.21335L6.41759 4.52219C6.34548 4.31617 6.12659 4.10499 5.84588 4.09984ZM10.5046 4.09984C10.2676 4.09984 10.0771 4.29299 10.0771 4.52734V7.45543C10.0771 7.69236 10.2702 7.88293 10.5046 7.88293C10.7389 7.88293 10.9321 7.68978 10.9321 7.45543V6.52318L11.0814 6.37381L12.0832 7.70266C12.1656 7.81082 12.2892 7.87263 12.4257 7.87263C12.5184 7.87263 12.6086 7.8443 12.6832 7.78764C12.7734 7.71811 12.8326 7.61767 12.8481 7.50436C12.8635 7.39105 12.8352 7.27774 12.7657 7.1876L11.7124 5.7918L12.6884 4.81835C12.7554 4.75139 12.7888 4.65868 12.7837 4.55824C12.7785 4.45781 12.7322 4.36252 12.6575 4.28784C12.5777 4.208 12.4695 4.16165 12.3639 4.16165C12.2712 4.16165 12.1888 4.19513 12.127 4.25693L10.9346 5.45186V4.53249C10.9346 4.29556 10.7415 4.10499 10.5071 4.10499L10.5046 4.09984ZM8.15333 4.09984C7.91383 4.09984 7.71811 4.29299 7.71811 4.52734V7.43225C7.71811 7.64858 7.90095 7.82369 8.12758 7.82627H9.5002C9.72682 7.82627 9.90967 7.64858 9.90967 7.43225C9.90967 7.21593 9.72425 7.04081 9.5002 7.04081H8.59113V4.52734C8.59113 4.29041 8.39541 4.09984 8.15333 4.09984ZM6.27338 6.38154H5.41838L5.84588 5.16858L6.27338 6.38154Z" fill="black"/>
</svg>
