<svg width="23" height="20" viewBox="0 0 23 20" fill="none" xmlns="http://www.w3.org/2000/svg">
<path d="M21.6426 6.29492C22.0531 6.1309 22.5 6.43381 22.5 6.87598V16.6533C22.5 16.9032 22.4243 17.1476 22.2842 17.3545C22.1441 17.5612 21.9457 17.7218 21.7139 17.8145L16.25 20V8.75L21.6426 6.29492ZM5.41992 6.58203C5.62226 7.1632 5.90474 7.77139 6.25 8.39551V17.5L0.857422 19.9541C0.446964 20.1181 0.00017739 19.8161 0 19.374V9.5957C9.68552e-05 9.34608 0.0749579 9.10224 0.214844 8.89551C0.354925 8.68866 0.554187 8.52834 0.786133 8.43555L5.41992 6.58203ZM7.5 10.3896C8.23899 11.4481 9.05534 12.4805 9.82324 13.3867C10.1799 13.8078 10.7004 14.0488 11.25 14.0488C11.7995 14.0488 12.3192 13.8074 12.6758 13.3867C13.4441 12.4805 14.261 11.4487 15 10.3906V19.999L7.5 17.499V10.3896ZM11.25 0C13.9682 0.000106393 16.1719 2.20363 16.1719 4.92188C16.1717 7.11936 12.9552 11.124 11.7227 12.5781C11.4734 12.8727 11.0269 12.8727 10.7773 12.5781C9.54488 11.1242 6.32833 7.11946 6.32812 4.92188C6.32812 2.20356 8.53169 0 11.25 0ZM11.4287 2.85742C10.6399 2.85742 10.0002 3.49636 10 4.28516C10 5.07412 10.6397 5.71387 11.4287 5.71387C12.2175 5.71368 12.8564 5.07401 12.8564 4.28516C12.8562 3.49647 12.2174 2.8576 11.4287 2.85742Z" fill="#2E6136"/>
</svg>
