<svg width="26" height="26" viewBox="0 0 26 26" fill="none" xmlns="http://www.w3.org/2000/svg">
<path d="M22.9048 12.381H21.0476V7.42857C21.0476 6.77184 20.7867 6.14202 20.3224 5.67764C19.858 5.21326 19.2282 4.95238 18.5714 4.95238H13.619V3.09524C13.619 2.27433 13.2929 1.48704 12.7125 0.906574C12.132 0.326104 11.3447 0 10.5238 0C9.7029 0 8.91562 0.326104 8.33515 0.906574C7.75468 1.48704 7.42857 2.27433 7.42857 3.09524V4.95238H2.47619C1.81946 4.95238 1.18964 5.21326 0.725259 5.67764C0.260884 6.14202 0 6.77184 0 7.42857V12.1333H1.85714C3.71429 12.1333 5.2 13.619 5.2 15.4762C5.2 17.3333 3.71429 18.819 1.85714 18.819H0V23.5238C0 24.1805 0.260884 24.8104 0.725259 25.2747C1.18964 25.7391 1.81946 26 2.47619 26H7.18095V24.1429C7.18095 22.2857 8.66667 20.8 10.5238 20.8C12.381 20.8 13.8667 22.2857 13.8667 24.1429V26H18.5714C19.2282 26 19.858 25.7391 20.3224 25.2747C20.7867 24.8104 21.0476 24.1805 21.0476 23.5238V18.5714H22.9048C23.7257 18.5714 24.513 18.2453 25.0934 17.6649C25.6739 17.0844 26 16.2971 26 15.4762C26 14.6553 25.6739 13.868 25.0934 13.2875C24.513 12.7071 23.7257 12.381 22.9048 12.381Z" fill="#00C77B"/>
</svg>
