<svg width="25" height="25" viewBox="0 0 25 25" fill="none" xmlns="http://www.w3.org/2000/svg">
<path d="M12.5 14.2857C19.375 14.2857 25 18.75 25 22.3214C25 23.0318 24.7178 23.7131 24.2155 24.2155C23.7131 24.7178 23.0318 25 22.3214 25H2.67857C1.96817 25 1.28686 24.7178 0.784535 24.2155C0.282206 23.7131 0 23.0318 0 22.3214C0 18.75 5.625 14.2857 12.5 14.2857ZM12.5 0C14.1576 0 15.7473 0.65848 16.9194 1.83058C18.0915 3.00268 18.75 4.5924 18.75 6.25C18.75 7.9076 18.0915 9.49732 16.9194 10.6694C15.7473 11.8415 14.1576 12.5 12.5 12.5C10.8424 12.5 9.25268 11.8415 8.08058 10.6694C6.90848 9.49732 6.25 7.9076 6.25 6.25C6.25 4.5924 6.90848 3.00268 8.08058 1.83058C9.25268 0.65848 10.8424 0 12.5 0Z" fill="#00C77B"/>
</svg>
