<svg xmlns="http://www.w3.org/2000/svg" width="383" height="384" viewBox="0 0 383 384" fill="none">
<g opacity="0.7" filter="url(#filter0_f_3291_2586)">
<path d="M241.338 335.888C244.028 311.61 234.04 298.389 209.76 295.699C185.481 293.009 171.658 303.591 168.968 327.869L166.278 352.147L97.1176 344.485C88.5321 343.533 80.6762 339.21 75.2779 332.467C69.8795 325.724 67.3808 317.112 68.3321 308.526L75.5053 243.785L51.2262 241.095C40.494 239.906 30.6733 234.502 23.9253 226.073C17.1774 217.644 14.0542 206.879 15.2432 196.148C16.4323 185.416 21.8361 175.597 30.2656 168.849C38.6952 162.102 49.4605 158.979 60.1927 160.168L84.4719 162.858L91.6451 98.1168C92.5963 89.5316 96.9197 81.6753 103.663 76.2772C110.407 70.8795 119.019 68.3812 127.604 69.3324L192.349 76.506L195.039 52.2279C196.228 41.4964 201.632 31.6765 210.062 24.9291C218.491 18.1817 229.256 15.0591 239.988 16.248C250.72 17.4371 260.541 22.8406 267.289 31.2697C274.037 39.6988 277.16 50.4634 275.971 61.1949L273.281 85.4731L338.026 92.6468C346.612 93.5982 354.468 97.921 359.866 104.664C365.264 111.407 367.763 120.02 366.812 128.605L359.997 190.109L335.718 187.419C311.439 184.729 289.863 201.999 287.173 226.277C284.483 250.555 301.755 272.13 326.034 274.82L350.313 277.51L343.499 339.015C342.548 347.6 338.224 355.456 331.481 360.854C324.737 366.252 316.125 368.75 307.54 367.799L238.648 360.166L241.338 335.888Z" fill="#90D79D" fill-opacity="0.24"/>
</g>
<defs>
<filter id="filter0_f_3291_2586" x="-1.00488" y="0" width="384.015" height="383.997" filterUnits="userSpaceOnUse" color-interpolation-filters="sRGB">
<feFlood flood-opacity="0" result="BackgroundImageFix"/>
<feBlend mode="normal" in="SourceGraphic" in2="BackgroundImageFix" result="shape"/>
<feGaussianBlur stdDeviation="8" result="effect1_foregroundBlur_3291_2586"/>
</filter>
</defs>
</svg>