<svg xmlns="http://www.w3.org/2000/svg" width="402" height="734" viewBox="0 0 402 734" fill="none">
<g opacity="0.7" filter="url(#filter0_f_3291_2582)">
<path d="M274.564 623.364C279.552 578.339 261.029 553.821 216.003 548.832C170.977 543.844 145.343 563.468 140.354 608.493L135.365 653.519L7.10596 639.308C-8.81625 637.543 -23.3857 629.527 -33.397 617.021C-43.4084 604.515 -48.0415 588.545 -46.2774 572.623L-32.9741 452.555L-78.0013 447.566C-97.904 445.361 -116.116 435.34 -128.63 419.708C-141.144 404.075 -146.936 384.112 -144.731 364.209C-142.525 344.307 -132.504 326.096 -116.871 313.582C-101.239 301.068 -81.2751 295.277 -61.3723 297.482L-16.3451 302.471L-3.04189 182.404C-1.27777 166.482 6.73921 151.912 19.2454 141.901C31.7516 131.891 47.7226 127.258 63.6447 129.022L183.716 142.326L188.704 97.3005C190.91 77.3982 200.931 59.1867 216.563 46.6729C232.196 34.1591 252.16 28.3684 272.063 30.5735C291.965 32.7787 310.177 42.7994 322.691 58.4317C335.206 74.0641 340.998 94.0277 338.793 113.93L333.804 158.955L453.874 172.259C469.796 174.023 484.367 182.039 494.378 194.545C504.389 207.051 509.022 223.022 507.258 238.944L494.62 353.008L494.619 353.008L476.66 515.098L476.661 515.099L464.023 629.163C462.258 645.085 454.242 659.654 441.735 669.665C429.229 679.676 413.258 684.309 397.335 682.544L269.575 668.389L274.564 623.364Z" fill="#90D79D" fill-opacity="0.25"/>
</g>
<defs>
<filter id="filter0_f_3291_2582" x="-195.59" y="-20.2857" width="753.616" height="753.598" filterUnits="userSpaceOnUse" color-interpolation-filters="sRGB">
<feFlood flood-opacity="0" result="BackgroundImageFix"/>
<feBlend mode="normal" in="SourceGraphic" in2="BackgroundImageFix" result="shape"/>
<feGaussianBlur stdDeviation="25.2" result="effect1_foregroundBlur_3291_2582"/>
</filter>
</defs>
</svg>