<svg width="17" height="17" viewBox="0 0 17 17" fill="none" xmlns="http://www.w3.org/2000/svg">
<path d="M7.83416 13.4673L13.9975 7.30393C12.9607 6.87079 12.019 6.23827 11.2258 5.44227C10.4294 4.64897 9.79663 3.70698 9.36333 2.66977L3.2 8.8331C2.71916 9.31393 2.47833 9.55477 2.27166 9.81977C2.02782 10.1327 1.81855 10.471 1.6475 10.8289C1.50333 11.1323 1.39583 11.4556 1.18083 12.1006L0.0458296 15.5031C-0.00640896 15.6589 -0.0141593 15.8262 0.0234494 15.9861C0.0610582 16.1461 0.142535 16.2924 0.258722 16.4085C0.37491 16.5247 0.521201 16.6062 0.681152 16.6438C0.841104 16.6814 1.00837 16.6737 1.16416 16.6214L4.56666 15.4864C5.2125 15.2714 5.535 15.1639 5.83833 15.0198C6.19777 14.8487 6.53416 14.6406 6.8475 14.3956C7.1125 14.1889 7.35333 13.9481 7.83416 13.4673ZM15.7075 5.59393C16.322 4.97941 16.6673 4.14593 16.6673 3.27685C16.6673 2.40778 16.322 1.5743 15.7075 0.959767C15.093 0.345239 14.2595 6.47511e-09 13.3904 0C12.5213 -6.47511e-09 11.6879 0.345239 11.0733 0.959767L10.3342 1.69893L10.3658 1.79143C10.73 2.83375 11.3261 3.77976 12.1092 4.5581C12.9108 5.36461 13.8899 5.97247 14.9683 6.3331L15.7075 5.59393Z" fill="#FAFAF8"/>
</svg>
