<svg width="20" height="20" viewBox="0 0 20 20" fill="none" xmlns="http://www.w3.org/2000/svg">
<path d="M9.99984 1.66669C9.72357 1.66669 9.45862 1.77643 9.26327 1.97178C9.06792 2.16713 8.95817 2.43209 8.95817 2.70835V8.95836H2.70817C2.4319 8.95836 2.16695 9.0681 1.9716 9.26345C1.77625 9.4588 1.6665 9.72376 1.6665 10C1.6665 10.2763 1.77625 10.5412 1.9716 10.7366C2.16695 10.9319 2.4319 11.0417 2.70817 11.0417H8.95817V17.2917C8.95817 17.568 9.06792 17.8329 9.26327 18.0283C9.45862 18.2236 9.72357 18.3334 9.99984 18.3334C10.2761 18.3334 10.5411 18.2236 10.7364 18.0283C10.9318 17.8329 11.0415 17.568 11.0415 17.2917V11.0417H17.2915C17.5678 11.0417 17.8327 10.9319 18.0281 10.7366C18.2234 10.5412 18.3332 10.2763 18.3332 10C18.3332 9.72376 18.2234 9.4588 18.0281 9.26345C17.8327 9.0681 17.5678 8.95836 17.2915 8.95836H11.0415V2.70835C11.0415 2.43209 10.9318 2.16713 10.7364 1.97178C10.5411 1.77643 10.2761 1.66669 9.99984 1.66669Z" fill="#FAFAF8"/>
</svg>
