<svg width="107" height="106" viewBox="0 0 107 106" fill="none" xmlns="http://www.w3.org/2000/svg">
<g filter="url(#filter0_i_3291_2562)">
<path d="M93.9062 30.1896H85.7358V12.64C85.7358 5.68798 80.0471 0 73.0943 0H12.6415C5.68866 0 0 5.68798 0 12.64V73.0856C0 80.0376 5.68866 85.7256 12.6415 85.7256H30.5591V93.263C30.5591 100.235 36.2611 105.936 43.2338 105.936C50.2066 105.936 55.9086 100.235 55.9086 93.263V85.7256H73.0943C80.0471 85.7256 85.7358 80.0376 85.7358 73.0856V55.536H93.9062C100.879 55.536 106.581 49.8348 106.581 42.8628C106.581 35.8909 100.879 30.1896 93.9062 30.1896Z" fill="url(#paint0_radial_3291_2562)"/>
</g>
<g filter="url(#filter1_d_3291_2562)">
<circle cx="58.8844" cy="36.9372" r="8.01042" fill="#0A0A0A"/>
</g>
<g filter="url(#filter2_d_3291_2562)">
<circle cx="31.7184" cy="36.9372" r="8.01042" fill="#0A0A0A"/>
</g>
<defs>
<filter id="filter0_i_3291_2562" x="0" y="0" width="106.581" height="105.937" filterUnits="userSpaceOnUse" color-interpolation-filters="sRGB">
<feFlood flood-opacity="0" result="BackgroundImageFix"/>
<feBlend mode="normal" in="SourceGraphic" in2="BackgroundImageFix" result="shape"/>
<feColorMatrix in="SourceAlpha" type="matrix" values="0 0 0 0 0 0 0 0 0 0 0 0 0 0 0 0 0 0 127 0" result="hardAlpha"/>
<feOffset/>
<feGaussianBlur stdDeviation="5"/>
<feComposite in2="hardAlpha" operator="arithmetic" k2="-1" k3="1"/>
<feColorMatrix type="matrix" values="0 0 0 0 1 0 0 0 0 1 0 0 0 0 0.896935 0 0 0 1 0"/>
<feBlend mode="normal" in2="shape" result="effect1_innerShadow_3291_2562"/>
</filter>
<filter id="filter1_d_3291_2562" x="47.874" y="26.9268" width="24.0205" height="24.0205" filterUnits="userSpaceOnUse" color-interpolation-filters="sRGB">
<feFlood flood-opacity="0" result="BackgroundImageFix"/>
<feColorMatrix in="SourceAlpha" type="matrix" values="0 0 0 0 0 0 0 0 0 0 0 0 0 0 0 0 0 0 127 0" result="hardAlpha"/>
<feOffset dx="1" dy="2"/>
<feGaussianBlur stdDeviation="2"/>
<feComposite in2="hardAlpha" operator="out"/>
<feColorMatrix type="matrix" values="0 0 0 0 0.992962 0 0 0 0 1 0 0 0 0 0.915546 0 0 0 1 0"/>
<feBlend mode="normal" in2="BackgroundImageFix" result="effect1_dropShadow_3291_2562"/>
<feBlend mode="normal" in="SourceGraphic" in2="effect1_dropShadow_3291_2562" result="shape"/>
</filter>
<filter id="filter2_d_3291_2562" x="20.708" y="26.9268" width="24.0205" height="24.0205" filterUnits="userSpaceOnUse" color-interpolation-filters="sRGB">
<feFlood flood-opacity="0" result="BackgroundImageFix"/>
<feColorMatrix in="SourceAlpha" type="matrix" values="0 0 0 0 0 0 0 0 0 0 0 0 0 0 0 0 0 0 127 0" result="hardAlpha"/>
<feOffset dx="1" dy="2"/>
<feGaussianBlur stdDeviation="2"/>
<feComposite in2="hardAlpha" operator="out"/>
<feColorMatrix type="matrix" values="0 0 0 0 0.992962 0 0 0 0 1 0 0 0 0 0.915546 0 0 0 1 0"/>
<feBlend mode="normal" in2="BackgroundImageFix" result="effect1_dropShadow_3291_2562"/>
<feBlend mode="normal" in="SourceGraphic" in2="effect1_dropShadow_3291_2562" result="shape"/>
</filter>
<radialGradient id="paint0_radial_3291_2562" cx="0" cy="0" r="1" gradientUnits="userSpaceOnUse" gradientTransform="translate(53.2905 52.9681) rotate(90) scale(52.9681 53.2905)">
<stop stop-color="#FFD61E"/>
<stop offset="1" stop-color="#FDF383"/>
</radialGradient>
</defs>
</svg>
