<svg width="360" height="190" viewBox="0 0 360 190" fill="none" xmlns="http://www.w3.org/2000/svg">
<rect width="360" height="190" rx="10" fill="url(#paint0_linear_3927_2351)"/>
<path d="M191.512 155.125C193.267 155.124 194.951 154.427 196.193 153.186C197.434 151.945 198.131 150.261 198.131 148.505V144.535H208.722C210.126 144.535 211.473 143.977 212.466 142.984C213.459 141.991 214.017 140.644 214.017 139.24V128.65H217.989C219.744 128.65 221.428 127.953 222.669 126.711C223.911 125.47 224.608 123.786 224.608 122.031C224.608 120.276 223.91 118.592 222.669 117.351C221.428 116.11 219.744 115.413 217.989 115.413H214.017V104.823C214.017 103.418 213.459 102.072 212.466 101.079C211.473 100.086 210.126 99.5279 208.722 99.5278H198.66V103.499C198.66 107.47 195.483 110.647 191.512 110.647C187.54 110.647 184.363 107.47 184.363 103.499V99.5278H174.302C172.898 99.5278 171.55 100.086 170.557 101.079C169.564 102.072 169.006 103.419 169.006 104.823V114.883H172.978C176.949 114.883 180.126 118.06 180.126 122.031C180.126 126.002 176.949 129.179 172.978 129.179H169.006V139.24C169.006 140.644 169.564 141.991 170.557 142.984C171.55 143.977 172.898 144.535 174.302 144.535H184.893V148.505C184.893 150.261 185.59 151.945 186.831 153.186C188.073 154.427 189.756 155.125 191.512 155.125Z" fill="#D197D1"/>
<rect x="169.002" y="110.119" width="14.5624" height="22.5035" fill="#D197D1"/>
<path d="M190.039 49.1566L193.959 49.7953C197.878 50.4341 200.503 54.0814 199.864 58.0013C199.226 61.921 195.579 64.5456 191.659 63.9071L187.739 63.2684L186.121 73.1989C185.896 74.585 186.23 76.0039 187.05 77.1437C187.87 78.2835 189.11 79.0515 190.496 79.2774L200.949 80.9806L200.31 84.8996C200.028 86.6323 200.446 88.4064 201.472 89.8313C202.497 91.2561 204.047 92.2159 205.78 92.4982C207.512 92.7804 209.286 92.3622 210.711 91.3367C212.136 90.3112 213.095 88.7612 213.377 87.0287L214.016 83.1097L224.469 84.8129C225.855 85.0387 227.274 84.7039 228.414 83.8834C229.553 83.063 230.32 81.8235 230.546 80.4374L236.081 46.4654C236.307 45.0793 235.973 43.6595 235.153 42.5197C234.333 41.38 233.093 40.6128 231.707 40.387L197.734 34.8515C196.348 34.6258 194.929 34.9597 193.789 35.78C192.649 36.6004 191.882 37.8408 191.656 39.227L190.039 49.1566Z" fill="#A6CCF4"/>
<rect width="14.2817" height="25.3903" transform="matrix(5.1219e-09 -1 -1 -5.12213e-09 162.086 99.8564)" fill="#82D3CA"/>
<path d="M139.341 95.8882C139.341 91.921 142.515 88.7476 146.482 88.7476C150.45 88.7476 153.624 91.921 153.624 95.8882V99.855H163.675C165.078 99.855 166.424 99.2981 167.416 98.3062C168.408 97.3142 168.965 95.9687 168.965 94.5659V83.9868H172.933C174.686 83.9868 176.368 83.2902 177.608 82.0503C178.848 80.8103 179.545 79.1281 179.545 77.3745C179.545 75.6211 178.848 73.9396 177.608 72.6997C176.368 71.4597 174.686 70.7632 172.933 70.7632H168.965V60.1841C168.965 58.7814 168.408 57.4358 167.416 56.4438C166.424 55.4519 165.078 54.894 163.675 54.894H153.095V50.9272C153.095 49.1736 152.398 47.4914 151.158 46.2515C149.918 45.0115 148.236 44.315 146.482 44.3149C144.729 44.3149 143.047 45.0116 141.807 46.2515C140.567 47.4914 139.87 49.1736 139.87 50.9272V54.894H129.29C127.887 54.894 126.541 55.4519 125.549 56.4438C124.557 57.4358 124 58.7814 124 60.1841V94.5659C124 95.9687 124.557 97.3142 125.549 98.3062C126.541 99.2981 127.887 99.855 129.29 99.855H139.341V95.8882Z" fill="#82D3CA"/>
<path d="M127.975 129.18C131.946 129.18 135.123 126.003 135.123 122.032C135.123 118.061 131.946 114.884 127.975 114.884L124.003 114.884L124.003 104.822C124.003 103.418 124.561 102.071 125.554 101.078C126.547 100.085 127.894 99.5271 129.298 99.5271L139.889 99.5271L139.889 95.5564C139.889 93.801 140.586 92.117 141.827 90.8757C143.069 89.6345 144.753 88.9373 146.508 88.9373C148.263 88.9374 149.947 89.6347 151.188 90.8757C152.429 92.117 153.127 93.801 153.127 95.5564L153.127 99.5271L163.717 99.5271C165.121 99.5271 166.468 100.085 167.461 101.078C168.454 102.071 169.013 103.418 169.013 104.822L169.013 115.413L172.984 115.413C174.739 115.413 176.423 116.11 177.664 117.351C178.906 118.593 179.603 120.277 179.603 122.032C179.603 123.787 178.905 125.47 177.664 126.712C176.423 127.953 174.739 128.65 172.984 128.65L169.013 128.65L169.013 139.241C169.013 140.645 168.454 141.992 167.461 142.985C166.468 143.978 165.121 144.536 163.717 144.536L153.656 144.536L153.656 140.564C153.656 136.593 150.479 133.416 146.508 133.416C142.537 133.416 139.36 136.593 139.36 140.564L139.36 144.536L129.298 144.536C127.894 144.536 126.547 143.978 125.554 142.985C124.561 141.992 124.003 140.645 124.003 139.241L124.003 129.18L127.975 129.18Z" fill="#F2D389"/>
<g filter="url(#filter0_f_3927_2351)">
<mask id="path-8-outside-1_3927_2351" maskUnits="userSpaceOnUse" x="82" y="67.3179" width="196" height="48" fill="black">
<rect fill="white" x="82" y="67.3179" width="196" height="48"/>
<path d="M111.838 100.333V95.2138H105.72C104.222 95.2138 103.41 94.5271 103.41 92.7167V89.9699H119.766V100.208C119.766 108.386 114.772 114.005 103.972 114.005C90.6751 114.005 83.4335 107.637 83.4335 91.6554C83.4335 75.6739 90.363 69.3063 103.66 69.3063C111.339 69.3063 114.835 71.6786 118.58 75.6115L114.585 79.9815C111.651 77.3595 108.842 74.5502 103.598 74.5502C94.3584 74.5502 91.3619 80.1687 91.3619 91.6554C91.3619 103.142 94.7329 108.761 103.91 108.761C110.527 108.761 111.838 103.517 111.838 100.333ZM142.984 112.569H139.925C130.936 112.569 125.192 106.264 125.192 97.4612C125.192 88.2219 131.747 82.7283 139.8 82.7283H155.22V112.506H147.292V87.9722H140.737C135.618 87.9722 132.871 92.0924 132.871 97.4612C132.871 102.892 135.743 107.262 140.612 107.262H145.294V110.072C145.294 111.882 144.482 112.569 142.984 112.569ZM182.16 113.006H176.167C169.612 113.006 166.74 109.01 166.74 102.518V87.9722H160.81V82.7283H166.74V73.1144H174.669V82.7283H181.848V87.9722H174.669V103.017C174.669 105.827 175.231 107.762 178.04 107.762H182.16V113.006ZM195.137 68.682V82.6658H203.877C211.431 82.6658 215.489 87.9098 215.489 95.1514V113.318H207.623V94.4647C207.623 90.9063 206.249 87.9098 202.691 87.9098H195.137V113.318H187.209V68.682H195.137ZM236.886 108.074H247.374V113.318H237.822C225.586 113.318 220.28 105.951 220.28 97.2739C220.28 88.971 225.337 81.6046 235.013 81.6046C243.753 81.6046 249.059 87.6601 249.059 96.7121C248.872 99.1468 247.811 101.644 244.315 101.644H228.583C229.02 104.89 231.579 108.074 236.886 108.074ZM235.013 86.8485C230.268 86.8485 227.959 91.5306 228.083 95.8381H239.882C240.694 95.8381 241.131 95.2138 241.131 94.5271C241.131 91.2184 239.008 86.8485 235.013 86.8485ZM253.998 113.068V95.4011C253.998 86.6612 257.619 82.7283 266.796 82.7283H276.222V87.9722H267.919C263.424 87.9722 261.926 90.0947 261.926 94.4023V113.318H254.248C254.06 113.318 253.998 113.255 253.998 113.068Z"/>
</mask>
<path d="M111.838 100.333V95.2138H105.72C104.222 95.2138 103.41 94.5271 103.41 92.7167V89.9699H119.766V100.208C119.766 108.386 114.772 114.005 103.972 114.005C90.6751 114.005 83.4335 107.637 83.4335 91.6554C83.4335 75.6739 90.363 69.3063 103.66 69.3063C111.339 69.3063 114.835 71.6786 118.58 75.6115L114.585 79.9815C111.651 77.3595 108.842 74.5502 103.598 74.5502C94.3584 74.5502 91.3619 80.1687 91.3619 91.6554C91.3619 103.142 94.7329 108.761 103.91 108.761C110.527 108.761 111.838 103.517 111.838 100.333ZM142.984 112.569H139.925C130.936 112.569 125.192 106.264 125.192 97.4612C125.192 88.2219 131.747 82.7283 139.8 82.7283H155.22V112.506H147.292V87.9722H140.737C135.618 87.9722 132.871 92.0924 132.871 97.4612C132.871 102.892 135.743 107.262 140.612 107.262H145.294V110.072C145.294 111.882 144.482 112.569 142.984 112.569ZM182.16 113.006H176.167C169.612 113.006 166.74 109.01 166.74 102.518V87.9722H160.81V82.7283H166.74V73.1144H174.669V82.7283H181.848V87.9722H174.669V103.017C174.669 105.827 175.231 107.762 178.04 107.762H182.16V113.006ZM195.137 68.682V82.6658H203.877C211.431 82.6658 215.489 87.9098 215.489 95.1514V113.318H207.623V94.4647C207.623 90.9063 206.249 87.9098 202.691 87.9098H195.137V113.318H187.209V68.682H195.137ZM236.886 108.074H247.374V113.318H237.822C225.586 113.318 220.28 105.951 220.28 97.2739C220.28 88.971 225.337 81.6046 235.013 81.6046C243.753 81.6046 249.059 87.6601 249.059 96.7121C248.872 99.1468 247.811 101.644 244.315 101.644H228.583C229.02 104.89 231.579 108.074 236.886 108.074ZM235.013 86.8485C230.268 86.8485 227.959 91.5306 228.083 95.8381H239.882C240.694 95.8381 241.131 95.2138 241.131 94.5271C241.131 91.2184 239.008 86.8485 235.013 86.8485ZM253.998 113.068V95.4011C253.998 86.6612 257.619 82.7283 266.796 82.7283H276.222V87.9722H267.919C263.424 87.9722 261.926 90.0947 261.926 94.4023V113.318H254.248C254.06 113.318 253.998 113.255 253.998 113.068Z" fill="#DCECDF"/>
<path d="M111.838 95.2138H112.994V94.0578H111.838V95.2138ZM103.41 89.9699V88.8138H102.254V89.9699H103.41ZM119.766 89.9699H120.923V88.8138H119.766V89.9699ZM118.58 75.6115L119.434 76.3916L120.161 75.5954L119.418 74.8142L118.58 75.6115ZM114.585 79.9815L113.815 80.8435L114.667 81.6051L115.438 80.7615L114.585 79.9815ZM111.838 100.333H112.994V95.2138H111.838H110.682V100.333H111.838ZM111.838 95.2138V94.0578H105.72V95.2138V96.3699H111.838V95.2138ZM105.72 95.2138V94.0578C105.125 94.0578 104.912 93.9198 104.829 93.8348C104.74 93.7438 104.566 93.4761 104.566 92.7167H103.41H102.254C102.254 93.7677 102.487 94.7486 103.178 95.4535C103.875 96.1645 104.817 96.3699 105.72 96.3699V95.2138ZM103.41 92.7167H104.566V89.9699H103.41H102.254V92.7167H103.41ZM103.41 89.9699V91.126H119.766V89.9699V88.8138H103.41V89.9699ZM119.766 89.9699H118.61V100.208H119.766H120.923V89.9699H119.766ZM119.766 100.208H118.61C118.61 104.059 117.44 107.171 115.13 109.328C112.81 111.495 109.181 112.849 103.972 112.849V114.005V115.161C109.563 115.161 113.831 113.705 116.708 111.018C119.595 108.322 120.923 104.535 120.923 100.208H119.766ZM103.972 114.005V112.849C97.49 112.849 92.7176 111.296 89.5474 108.019C86.3687 104.733 84.5896 99.4967 84.5896 91.6554H83.4335H82.2775C82.2775 99.7957 84.1192 105.734 87.8856 109.627C91.6604 113.529 97.1574 115.161 103.972 115.161V114.005ZM83.4335 91.6554H84.5896C84.5896 83.8023 86.2961 78.5648 89.4004 75.2821C92.4906 72.0143 97.1779 70.4624 103.66 70.4624V69.3063V68.1502C96.8453 68.1502 91.4192 69.7822 87.7204 73.6935C84.0356 77.59 82.2775 83.5271 82.2775 91.6554H83.4335ZM103.66 69.3063V70.4624C107.378 70.4624 109.993 71.036 112.102 72.0298C114.217 73.0262 115.911 74.4855 117.743 76.4088L118.58 75.6115L119.418 74.8142C117.504 72.8046 115.577 71.1113 113.088 69.9383C110.593 68.7627 107.621 68.1502 103.66 68.1502V69.3063ZM118.58 75.6115L117.727 74.8314L113.732 79.2014L114.585 79.9815L115.438 80.7615L119.434 76.3916L118.58 75.6115ZM114.585 79.9815L115.355 79.1194C112.471 76.5416 109.346 73.3942 103.598 73.3942V74.5502V75.7063C108.337 75.7063 110.831 78.1774 113.815 80.8435L114.585 79.9815ZM103.598 74.5502V73.3942C98.7225 73.3942 95.2369 74.8963 93.0547 78.1516C90.9487 81.2935 90.2058 85.8686 90.2058 91.6554H91.3619H92.5179C92.5179 85.9556 93.2733 81.9781 94.9753 79.439C96.6013 77.0134 99.2336 75.7063 103.598 75.7063V74.5502ZM91.3619 91.6554H90.2058C90.2058 97.4612 91.0474 102.038 93.2477 105.179C95.5152 108.416 99.0656 109.917 103.91 109.917V108.761V107.605C99.5772 107.605 96.8536 106.296 95.1414 103.852C93.3619 101.312 92.5179 97.3363 92.5179 91.6554H91.3619ZM103.91 108.761V109.917C107.579 109.917 109.93 108.434 111.313 106.388C112.647 104.415 112.994 102.048 112.994 100.333H111.838H110.682C110.682 101.802 110.374 103.649 109.398 105.093C108.471 106.465 106.858 107.605 103.91 107.605V108.761ZM155.22 82.7283H156.376V81.5722H155.22V82.7283ZM155.22 112.506V113.662H156.376V112.506H155.22ZM147.292 112.506H146.136V113.662H147.292V112.506ZM147.292 87.9722H148.448V86.8161H147.292V87.9722ZM145.294 107.262H146.45V106.106H145.294V107.262ZM142.984 112.569V111.413H139.925V112.569V113.725H142.984V112.569ZM139.925 112.569V111.413C135.712 111.413 132.342 109.942 130.023 107.517C127.698 105.086 126.348 101.609 126.348 97.4612H125.192H124.036C124.036 102.115 125.558 106.193 128.352 109.115C131.152 112.043 135.149 113.725 139.925 113.725V112.569ZM125.192 97.4612H126.348C126.348 93.1289 127.878 89.7571 130.275 87.4658C132.682 85.1659 136.037 83.8843 139.8 83.8843V82.7283V81.5722C135.511 81.5722 131.562 83.0375 128.678 85.7943C125.784 88.5595 124.036 92.5542 124.036 97.4612H125.192ZM139.8 82.7283V83.8843H155.22V82.7283V81.5722H139.8V82.7283ZM155.22 82.7283H154.064V112.506H155.22H156.376V82.7283H155.22ZM155.22 112.506V111.35H147.292V112.506V113.662H155.22V112.506ZM147.292 112.506H148.448V87.9722H147.292H146.136V112.506H147.292ZM147.292 87.9722V86.8161H140.737V87.9722V89.1283H147.292V87.9722ZM140.737 87.9722V86.8161C137.831 86.8161 135.524 88.0025 133.973 89.9925C132.447 91.9493 131.715 94.5948 131.715 97.4612H132.871H134.027C134.027 94.9588 134.669 92.8599 135.796 91.4143C136.897 90.002 138.523 89.1283 140.737 89.1283V87.9722ZM132.871 97.4612H131.715C131.715 100.366 132.481 103.077 133.99 105.091C135.52 107.134 137.789 108.418 140.612 108.418V107.262V106.106C138.566 106.106 136.964 105.205 135.841 103.706C134.696 102.177 134.027 99.9872 134.027 97.4612H132.871ZM140.612 107.262V108.418H145.294V107.262V106.106H140.612V107.262ZM145.294 107.262H144.138V110.072H145.294H146.45V107.262H145.294ZM145.294 110.072H144.138C144.138 110.831 143.965 111.099 143.875 111.19C143.792 111.275 143.579 111.413 142.984 111.413V112.569V113.725C143.887 113.725 144.83 113.519 145.527 112.808C146.218 112.104 146.45 111.123 146.45 110.072H145.294ZM182.16 113.006V114.162H183.316V113.006H182.16ZM166.74 87.9722H167.896V86.8161H166.74V87.9722ZM160.81 87.9722H159.654V89.1283H160.81V87.9722ZM160.81 82.7283V81.5722H159.654V82.7283H160.81ZM166.74 82.7283V83.8843H167.896V82.7283H166.74ZM166.74 73.1144V71.9583H165.584V73.1144H166.74ZM174.669 73.1144H175.825V71.9583H174.669V73.1144ZM174.669 82.7283H173.513V83.8843H174.669V82.7283ZM181.848 82.7283H183.004V81.5722H181.848V82.7283ZM181.848 87.9722V89.1283H183.004V87.9722H181.848ZM174.669 87.9722V86.8161H173.513V87.9722H174.669ZM182.16 107.762H183.316V106.606H182.16V107.762ZM182.16 113.006V111.85H176.167V113.006V114.162H182.16V113.006ZM176.167 113.006V111.85C173.133 111.85 171.139 110.935 169.877 109.448C168.585 107.927 167.896 105.618 167.896 102.518H166.74H165.584C165.584 105.91 166.332 108.845 168.114 110.945C169.926 113.079 172.646 114.162 176.167 114.162V113.006ZM166.74 102.518H167.896V87.9722H166.74H165.584V102.518H166.74ZM166.74 87.9722V86.8161H160.81V87.9722V89.1283H166.74V87.9722ZM160.81 87.9722H161.966V82.7283H160.81H159.654V87.9722H160.81ZM160.81 82.7283V83.8843H166.74V82.7283V81.5722H160.81V82.7283ZM166.74 82.7283H167.896V73.1144H166.74H165.584V82.7283H166.74ZM166.74 73.1144V74.2705H174.669V73.1144V71.9583H166.74V73.1144ZM174.669 73.1144H173.513V82.7283H174.669H175.825V73.1144H174.669ZM174.669 82.7283V83.8843H181.848V82.7283V81.5722H174.669V82.7283ZM181.848 82.7283H180.692V87.9722H181.848H183.004V82.7283H181.848ZM181.848 87.9722V86.8161H174.669V87.9722V89.1283H181.848V87.9722ZM174.669 87.9722H173.513V103.017H174.669H175.825V87.9722H174.669ZM174.669 103.017H173.513C173.513 104.439 173.642 105.905 174.305 107.03C174.654 107.623 175.147 108.115 175.808 108.448C176.458 108.775 177.208 108.918 178.04 108.918V107.762V106.606C177.467 106.606 177.094 106.507 176.848 106.383C176.614 106.265 176.439 106.098 176.297 105.856C175.976 105.312 175.825 104.405 175.825 103.017H174.669ZM178.04 107.762V108.918H182.16V107.762V106.606H178.04V107.762ZM182.16 107.762H181.004V113.006H182.16H183.316V107.762H182.16ZM195.137 68.682H196.293V67.526H195.137V68.682ZM195.137 82.6658H193.981V83.8219H195.137V82.6658ZM215.489 113.318V114.474H216.645V113.318H215.489ZM207.623 113.318H206.467V114.474H207.623V113.318ZM195.137 87.9098V86.7537H193.981V87.9098H195.137ZM195.137 113.318V114.474H196.293V113.318H195.137ZM187.209 113.318H186.053V114.474H187.209V113.318ZM187.209 68.682V67.526H186.053V68.682H187.209ZM195.137 68.682H193.981V82.6658H195.137H196.293V68.682H195.137ZM195.137 82.6658V83.8219H203.877V82.6658V81.5098H195.137V82.6658ZM203.877 82.6658V83.8219C207.369 83.8219 209.939 85.0234 211.649 86.9586C213.377 88.9133 214.333 91.7376 214.333 95.1514H215.489H216.645C216.645 91.3236 215.572 87.9051 213.382 85.4274C211.175 82.9303 207.939 81.5098 203.877 81.5098V82.6658ZM215.489 95.1514H214.333V113.318H215.489H216.645V95.1514H215.489ZM215.489 113.318V112.162H207.623V113.318V114.474H215.489V113.318ZM207.623 113.318H208.779V94.4647H207.623H206.467V113.318H207.623ZM207.623 94.4647H208.779C208.779 92.5652 208.417 90.6714 207.456 89.2159C206.452 87.6942 204.854 86.7537 202.691 86.7537V87.9098V89.0658C204.086 89.0658 204.955 89.6236 205.526 90.4897C206.142 91.4222 206.467 92.8058 206.467 94.4647H207.623ZM202.691 87.9098V86.7537H195.137V87.9098V89.0658H202.691V87.9098ZM195.137 87.9098H193.981V113.318H195.137H196.293V87.9098H195.137ZM195.137 113.318V112.162H187.209V113.318V114.474H195.137V113.318ZM187.209 113.318H188.365V68.682H187.209H186.053V113.318H187.209ZM187.209 68.682V69.8381H195.137V68.682V67.526H187.209V68.682ZM247.374 108.074H248.53V106.918H247.374V108.074ZM247.374 113.318V114.474H248.53V113.318H247.374ZM249.059 96.7121L250.212 96.8008L250.215 96.7565V96.7121H249.059ZM228.583 101.644V100.488H227.261L227.437 101.798L228.583 101.644ZM228.083 95.8381L226.928 95.8716L226.96 96.9942H228.083V95.8381ZM236.886 108.074V109.23H247.374V108.074V106.918H236.886V108.074ZM247.374 108.074H246.218V113.318H247.374H248.53V108.074H247.374ZM247.374 113.318V112.162H237.822V113.318V114.474H247.374V113.318ZM237.822 113.318V112.162C231.942 112.162 227.882 110.398 225.29 107.742C222.69 105.078 221.436 101.382 221.436 97.2739H220.28H219.124C219.124 101.843 220.524 106.169 223.635 109.357C226.756 112.555 231.467 114.474 237.822 114.474V113.318ZM220.28 97.2739H221.436C221.436 93.3471 222.632 89.7126 224.895 87.079C227.138 84.468 230.495 82.7606 235.013 82.7606V81.6046V80.4485C229.855 80.4485 225.845 82.4244 223.141 85.5723C220.456 88.6977 219.124 92.8979 219.124 97.2739H220.28ZM235.013 81.6046V82.7606C239.102 82.7606 242.288 84.1686 244.46 86.544C246.644 88.9315 247.903 92.4078 247.903 96.7121H249.059H250.215C250.215 91.9644 248.822 87.8869 246.167 84.9837C243.501 82.0682 239.664 80.4485 235.013 80.4485V81.6046ZM249.059 96.7121L247.907 96.6234C247.821 97.7326 247.544 98.7051 247.017 99.3791C246.535 99.9956 245.749 100.488 244.315 100.488V101.644V102.8C246.376 102.8 247.869 102.044 248.839 100.803C249.763 99.6196 250.11 98.1263 250.212 96.8008L249.059 96.7121ZM244.315 101.644V100.488H228.583V101.644V102.8H244.315V101.644ZM228.583 101.644L227.437 101.798C227.688 103.664 228.554 105.536 230.142 106.942C231.74 108.356 233.991 109.23 236.886 109.23V108.074V106.918C234.474 106.918 232.792 106.2 231.675 105.211C230.548 104.213 229.914 102.87 229.729 101.49L228.583 101.644ZM235.013 86.8485V85.6924C232.201 85.6924 230.101 87.1027 228.764 89.0807C227.45 91.0249 226.86 93.5212 226.928 95.8716L228.083 95.8381L229.239 95.8046C229.182 93.8475 229.684 91.849 230.68 90.3753C231.653 88.9354 233.08 88.0046 235.013 88.0046V86.8485ZM228.083 95.8381V96.9942H239.882V95.8381V94.682H228.083V95.8381ZM239.882 95.8381V96.9942C240.61 96.9942 241.245 96.7025 241.683 96.1994C242.103 95.7168 242.287 95.1066 242.287 94.5271H241.131H239.975C239.975 94.6343 239.94 94.6797 239.939 94.6808C239.939 94.681 239.94 94.6796 239.943 94.6776C239.946 94.6757 239.948 94.6745 239.948 94.6742C239.952 94.6726 239.935 94.682 239.882 94.682V95.8381ZM241.131 94.5271H242.287C242.287 92.6556 241.695 90.5053 240.524 88.7944C239.341 87.0639 237.49 85.6924 235.013 85.6924V86.8485V88.0046C236.531 88.0046 237.739 88.8181 238.616 90.0997C239.506 91.4009 239.975 93.09 239.975 94.5271H241.131ZM276.222 82.7283H277.378V81.5722H276.222V82.7283ZM276.222 87.9722V89.1283H277.378V87.9722H276.222ZM261.926 113.318V114.474H263.082V113.318H261.926ZM253.998 113.068H255.154V95.4011H253.998H252.842V113.068H253.998ZM253.998 95.4011H255.154C255.154 91.1563 256.039 88.3587 257.777 86.6C259.514 84.8438 262.34 83.8843 266.796 83.8843V82.7283V81.5722C262.075 81.5722 258.501 82.5793 256.133 84.9744C253.767 87.3672 252.842 90.906 252.842 95.4011H253.998ZM266.796 82.7283V83.8843H276.222V82.7283V81.5722H266.796V82.7283ZM276.222 82.7283H275.066V87.9722H276.222H277.378V82.7283H276.222ZM276.222 87.9722V86.8161H267.919V87.9722V89.1283H276.222V87.9722ZM267.919 87.9722V86.8161C265.514 86.8161 263.617 87.3836 262.367 88.8102C261.15 90.2005 260.77 92.1621 260.77 94.4023H261.926H263.082C263.082 92.3349 263.452 91.0815 264.107 90.3336C264.73 89.6221 265.83 89.1283 267.919 89.1283V87.9722ZM261.926 94.4023H260.77V113.318H261.926H263.082V94.4023H261.926ZM261.926 113.318V112.162H254.248V113.318V114.474H261.926V113.318ZM254.248 113.318V112.162C254.256 112.162 254.329 112.161 254.434 112.19C254.549 112.221 254.717 112.293 254.87 112.446C255.023 112.599 255.094 112.766 255.126 112.882C255.154 112.986 255.154 113.06 255.154 113.068H253.998H252.842C252.842 113.226 252.853 113.699 253.235 114.081C253.617 114.463 254.09 114.474 254.248 114.474V113.318Z" fill="#18BD77" mask="url(#path-8-outside-1_3927_2351)"/>
</g>
<defs>
<filter id="filter0_f_3927_2351" x="80.1964" y="65.445" width="199.263" height="51.7966" filterUnits="userSpaceOnUse" color-interpolation-filters="sRGB">
<feFlood flood-opacity="0" result="BackgroundImageFix"/>
<feBlend mode="normal" in="SourceGraphic" in2="BackgroundImageFix" result="shape"/>
<feGaussianBlur stdDeviation="1.04046" result="effect1_foregroundBlur_3927_2351"/>
</filter>
<linearGradient id="paint0_linear_3927_2351" x1="0" y1="0" x2="504.5" y2="271.5" gradientUnits="userSpaceOnUse">
<stop stop-color="#FAFAFA"/>
<stop offset="1" stop-color="#CBE7D0"/>
</linearGradient>
</defs>
</svg>
