<svg width="24" height="24" viewBox="0 0 24 24" fill="none" xmlns="http://www.w3.org/2000/svg">
<path d="M17.4307 4C19.9198 4 21.9998 6.10048 22 8.78516C22 11.4269 20.7624 13.765 18.4229 16.1104L17.9404 16.5801C16.6953 17.7565 15.2038 18.9 14.0107 19.7568C13.4171 20.1832 12.9031 20.535 12.5381 20.7793C12.524 20.7887 12.5098 20.7975 12.4961 20.8066C12.478 20.7947 12.4593 20.783 12.4404 20.7705C12.0666 20.5235 11.5416 20.1694 10.9414 19.7412C9.73371 18.8797 8.25018 17.7401 7.07129 16.5908C4.67972 14.2593 3 11.5771 3 8.78516C3.00018 6.10889 5.08124 4 7.56934 4C9.30621 4.00005 10.8313 5.02177 11.6074 6.55762L12.5 8.32324L13.3926 6.55762C14.1687 5.02177 15.6938 4.00005 17.4307 4Z" stroke="#0A0A0A" stroke-width="2"/>
</svg>
