<svg xmlns="http://www.w3.org/2000/svg" width="20" height="18" viewBox="0 0 20 18" fill="none">
<path d="M14.6963 0.5C17.335 0.500162 19.5 2.70941 19.5 5.48145C19.4999 8.32144 18.0649 10.7725 15.4922 13.1895C14.2853 14.3238 12.8474 15.4205 11.7041 16.2373C11.1341 16.6445 10.6401 16.9802 10.2891 17.2139C10.177 17.2885 10.0787 17.3526 9.99805 17.4053C9.91394 17.3511 9.81121 17.2854 9.69336 17.208C9.33372 16.9717 8.8288 16.632 8.25195 16.2227C7.09467 15.4014 5.65959 14.3075 4.5127 13.1953C2.20158 10.9541 0.500179 8.30424 0.5 5.48145C0.5 2.71786 2.66555 0.500162 5.30371 0.5C7.14448 0.5 8.74593 1.57794 9.55469 3.16992L10 4.04688L10.4453 3.16992C11.2541 1.57794 12.8555 0.5 14.6963 0.5Z" stroke="#545454"/>
</svg>