<svg xmlns="http://www.w3.org/2000/svg" width="402" height="582" viewBox="0 0 402 582" fill="none">
<g opacity="0.7" filter="url(#filter0_f_3291_2636)">
<path d="M238.398 487.035C242.07 453.897 228.437 435.852 195.298 432.18C162.16 428.508 143.294 442.953 139.622 476.091L135.95 509.23L41.5543 498.771C29.8358 497.473 19.1129 491.573 11.7448 482.368C4.37669 473.164 0.966838 461.409 2.26517 449.691L12.0565 361.321L-21.0826 357.649C-35.7305 356.026 -49.1341 348.651 -58.3442 337.145C-67.5544 325.64 -71.8164 310.946 -70.1934 296.298C-68.5704 281.65 -61.1951 268.247 -49.6899 259.036C-38.1846 249.826 -23.4915 245.563 -8.84347 247.186L24.2955 250.858L34.0868 162.488C35.3853 150.769 41.2856 140.046 50.4898 132.678C59.6942 125.31 71.4486 121.9 83.1671 123.198L171.536 132.99L175.208 99.8506C176.831 85.2025 184.207 71.7993 195.713 62.5891C207.218 53.3789 221.911 49.1158 236.559 50.7388C251.207 52.3618 264.611 59.7378 273.821 71.2433C283.031 82.7487 287.293 97.4415 285.67 112.09L281.998 145.229L370.369 155.02C382.087 156.318 392.81 162.219 400.178 171.423C407.546 180.627 410.956 192.382 409.658 204.1L377.836 491.304C376.538 503.022 370.637 513.745 361.433 521.113C352.229 528.481 340.474 531.891 328.756 530.593L234.727 520.174L238.398 487.035Z" fill="#90D79D" fill-opacity="0.25"/>
</g>
<defs>
<filter id="filter0_f_3291_2636" x="-120.932" y="0.000389099" width="581.26" height="581.263" filterUnits="userSpaceOnUse" color-interpolation-filters="sRGB">
<feFlood flood-opacity="0" result="BackgroundImageFix"/>
<feBlend mode="normal" in="SourceGraphic" in2="BackgroundImageFix" result="shape"/>
<feGaussianBlur stdDeviation="25.2" result="effect1_foregroundBlur_3291_2636"/>
</filter>
</defs>
</svg>