<svg xmlns="http://www.w3.org/2000/svg" width="97" height="112" viewBox="0 0 97 112" fill="none">
<path d="M11.6647 27.3243L18.7297 28.4755C25.7948 29.6266 30.5258 36.1994 29.3748 43.2646C28.2236 50.3299 21.6508 55.0618 14.5856 53.9106L7.52057 52.7594L4.60436 70.6582C4.19745 73.1565 4.79891 75.7144 6.27761 77.7688C7.75634 79.8232 9.9911 81.2056 12.4893 81.6127L31.3298 84.6826L30.1787 91.7476C29.6698 94.8707 30.4231 98.0683 32.2716 100.636C34.1201 103.204 36.9127 104.933 40.0355 105.442C43.1585 105.951 46.356 105.198 48.9241 103.35C51.4921 101.501 53.2206 98.708 53.7294 95.585L54.8805 88.52L73.7209 91.5898C76.2192 91.9969 78.7771 91.3952 80.8315 89.9166C82.8859 88.4379 84.2692 86.2033 84.6763 83.7051L94.6528 22.4724C95.0599 19.974 94.4574 17.4161 92.9786 15.3616C91.4998 13.3071 89.2654 11.9238 86.767 11.5167L84.5116 11.1492L84.5124 11.1444L38.9126 3.71438L38.9118 3.7192L25.5355 1.53967C23.0372 1.1327 20.4791 1.73507 18.4247 3.21381C16.3704 4.69262 14.9879 6.92725 14.5809 9.42552L11.6647 27.3243Z" fill="#A6CCF4"/>
</svg>