<svg xmlns="http://www.w3.org/2000/svg" width="105" height="105" viewBox="0 0 105 105" fill="none">
<path d="M40.5218 102.052C43.6823 102.205 46.7745 101.096 49.1173 98.9697C51.4601 96.8432 52.862 93.873 53.0149 90.7128L53.3606 83.5639L72.4272 84.486C74.9556 84.6083 77.4291 83.7206 79.3034 82.0194C81.1775 80.3182 82.2987 77.9423 82.421 75.4143L83.3431 56.3486L90.4939 56.6945C93.6542 56.8472 96.7456 55.7383 99.0884 53.6119C101.431 51.4854 102.833 48.5152 102.986 45.355C103.139 42.1949 102.03 39.1031 99.9034 36.7605C97.7768 34.4181 94.8066 33.0159 91.6464 32.863L84.4956 32.5171L85.4176 13.4525C85.5399 10.9244 84.6531 8.45144 82.9519 6.57731C81.2506 4.70315 78.8742 3.58094 76.3459 3.45866L58.2323 2.58264L57.8865 9.73249C57.5406 16.8818 51.5442 22.3246 44.3944 21.9788C37.2447 21.6329 31.8014 15.6369 32.147 8.48767L32.4928 1.33782L14.3802 0.461851C11.8518 0.339573 9.37828 1.22723 7.50399 2.92847C5.62976 4.6297 4.50765 7.00543 4.38539 9.53358L3.50946 27.6452L10.6593 27.991C17.8091 28.3368 23.2522 34.3329 22.9067 41.4822C22.5609 48.6316 16.5645 54.0753 9.41454 53.7295L2.26469 53.3837L1.38877 71.4953C1.26656 74.0235 2.15411 76.4965 3.85543 78.3706C5.5568 80.2447 7.93317 81.3669 10.4615 81.4892L29.5281 82.4113L29.1824 89.5602C29.0295 92.7204 30.1382 95.812 32.2649 98.1547C34.3916 100.497 37.3616 101.899 40.5218 102.052Z" fill="#D197D1"/>
<rect x="3.91881" y="19.0674" width="26.2467" height="40.5602" transform="rotate(2.7688 3.91881 19.0674)" fill="#D197D1"/>
</svg>