<svg xmlns="http://www.w3.org/2000/svg" width="114" height="114" viewBox="0 0 114 114" fill="none">
<rect width="25.7413" height="45.7626" transform="matrix(-0.139173 -0.990268 -0.990268 0.139173 81.9072 103.516)" fill="#82D3CA"/>
<path d="M40.3178 102.136C39.3229 95.0555 44.1921 88.5952 51.2734 87.5999C58.3548 86.6047 64.8161 91.4726 65.8114 98.5533L66.8065 105.634L84.7464 103.113C87.2505 102.761 89.5126 101.429 91.0345 99.4097C92.5562 97.3903 93.2129 94.8493 92.8611 92.3455L90.2073 73.4627L97.289 72.4674C100.419 72.0275 103.247 70.3624 105.149 67.8382C107.051 65.3141 107.873 62.1374 107.433 59.0076C106.994 55.8776 105.328 53.0499 102.803 51.1478C100.279 49.2457 97.102 48.4245 93.9719 48.8644L86.8901 49.8597L84.2363 30.9769C83.8843 28.4732 82.5526 26.2115 80.5333 24.6899C78.5138 23.1682 75.9722 22.5115 73.4681 22.8634L54.5844 25.5173L53.5891 18.4355C53.1491 15.3058 51.4834 12.4787 48.9591 10.5767C46.4347 8.67463 43.2578 7.85341 40.1276 8.29333C36.9975 8.73328 34.17 10.3983 32.2676 12.9225C30.3654 15.4467 29.5444 18.6232 29.9842 21.753L30.9794 28.8348L12.0947 31.4889C9.59084 31.8409 7.32946 33.1727 5.80768 35.1919C4.28588 37.2112 3.6283 39.7523 3.98008 42.2562L12.6049 103.625C12.9569 106.129 14.2894 108.39 16.3089 109.912C18.3282 111.433 20.8691 112.09 23.373 111.738L41.3129 109.217L40.3178 102.136Z" fill="#82D3CA"/>
</svg>