<svg xmlns="http://www.w3.org/2000/svg" width="103" height="103" viewBox="0 0 103 103" fill="none">
<path d="M8.40218 70.112C15.5434 70.6008 21.6477 65.2793 22.1367 58.1382C22.6254 50.997 17.3032 44.8924 10.1619 44.4036L3.02039 43.9148L4.25872 25.8233C4.43166 23.2982 5.60112 20.9453 7.50891 19.282C9.41674 17.6187 11.9069 16.7807 14.4321 16.9534L33.4764 18.257L33.9653 11.1155C34.1814 7.959 35.6425 5.01745 38.0273 2.93825C40.4121 0.85909 43.5252 -0.187732 46.6818 0.0283146C49.8383 0.244376 52.7797 1.70565 54.859 4.09035C56.9382 6.47511 57.9849 9.58832 57.7689 12.7448L57.2801 19.8863L76.3244 21.1899C78.8496 21.3628 81.2024 22.5323 82.8658 24.4401C84.5292 26.3479 85.3671 28.8381 85.1943 31.3633L83.8909 50.4066L91.0323 50.8954C94.1888 51.1115 97.1303 52.5729 99.2096 54.9575C101.289 57.3423 102.335 60.4563 102.119 63.6129C101.903 66.7694 100.442 69.7109 98.0574 71.7902C95.6726 73.8693 92.5595 74.9161 89.403 74.7001L82.2615 74.2113L80.958 93.2546C80.7851 95.7799 79.6156 98.1335 77.7077 99.7969C75.7999 101.46 73.3097 102.297 70.7846 102.125L52.6931 100.886L53.1819 93.7447C53.6704 86.6037 48.3482 80.4999 41.2071 80.0111C34.0659 79.5223 27.9617 84.8439 27.4726 91.9849L26.9837 99.1264L8.89227 97.8881C6.36717 97.7152 4.01422 96.5465 2.35084 94.6389C0.687451 92.731 -0.150501 90.2399 0.02235 87.7147L1.26068 69.6232L8.40218 70.112Z" fill="#F2D389"/>
</svg>