<svg xmlns="http://www.w3.org/2000/svg" width="180" height="195" viewBox="0 0 180 195" fill="none">
<rect width="21.6272" height="38.4338" transform="matrix(5.11966e-09 -1 -1 -5.12437e-09 59.6484 110.232)" fill="#82D3CA"/>
<path d="M25.2227 104.208C25.2227 98.2024 30.0267 93.3977 36.0322 93.3975C42.038 93.3975 46.8428 98.2022 46.8428 104.208V110.213H62.0576C64.1813 110.213 66.218 109.37 67.7197 107.868C69.2214 106.367 70.0653 104.33 70.0654 102.206V86.1904H76.0713C78.7259 86.1904 81.2723 85.1359 83.1494 83.2588C85.0265 81.3816 86.0811 78.8353 86.0811 76.1807C86.0811 73.526 85.0265 70.9797 83.1494 69.1025C81.2723 67.2254 78.7259 66.171 76.0713 66.1709H70.0654V50.1553C70.0653 48.0317 69.2214 45.9948 67.7197 44.4932C66.218 42.9916 64.1813 42.1484 62.0576 42.1484H46.042V36.1426C46.042 33.4879 44.9875 30.9416 43.1104 29.0645C41.2332 27.1873 38.6869 26.1328 36.0322 26.1328C33.3777 26.1329 30.8321 27.1875 28.9551 29.0645C27.0779 30.9416 26.0234 33.4879 26.0234 36.1426V42.1484H10.0078C7.88417 42.1484 5.84741 42.9916 4.3457 44.4932C2.84407 45.9948 2.00011 48.0317 2 50.1553L2 102.206C2.00011 104.33 2.84407 106.367 4.3457 107.868C5.84741 109.37 7.88417 110.213 10.0078 110.213H25.2227V104.208Z" fill="#82D3CA"/>
<path d="M102.22 194.399C104.878 194.399 107.427 193.343 109.307 191.464C111.186 189.585 112.241 187.035 112.241 184.378V178.366H128.276C130.403 178.366 132.442 177.521 133.945 176.018C135.449 174.514 136.294 172.475 136.294 170.349V154.315H142.307C144.965 154.315 147.514 153.259 149.394 151.38C151.273 149.501 152.328 146.952 152.328 144.294C152.328 141.636 151.273 139.087 149.394 137.208C147.514 135.329 144.965 134.273 142.307 134.273H136.294V118.239C136.294 116.113 135.449 114.074 133.945 112.57C132.442 111.067 130.403 110.223 128.276 110.223H113.043V116.235C113.043 122.248 108.233 127.058 102.22 127.058C96.2068 127.058 91.3965 122.248 91.3965 116.235V110.223H76.1631C74.0369 110.223 71.9976 111.067 70.4941 112.57C68.9906 114.074 68.1456 116.113 68.1455 118.239V133.472H74.1592C80.172 133.472 84.9823 138.282 84.9824 144.294C84.9824 150.307 80.1721 155.117 74.1592 155.117H68.1455V170.349C68.1455 172.475 68.9906 174.514 70.4941 176.018C71.9976 177.521 74.0368 178.366 76.1631 178.366H92.1982V184.378C92.1982 187.036 93.2544 189.585 95.1338 191.464C97.0132 193.343 99.5618 194.399 102.22 194.399Z" fill="#D197D1"/>
<rect x="68.1411" y="126.257" width="22.0475" height="34.0711" fill="#D197D1"/>
<path d="M6.0127 155.118C12.0254 155.118 16.8359 150.308 16.8359 144.295C16.8357 138.282 12.0253 133.472 6.0127 133.472L1.96245e-06 133.472L2.62829e-06 118.239C0.000119174 116.113 0.844334 114.074 2.34766 112.57C3.85107 111.067 5.89056 110.222 8.0166 110.222L24.0508 110.222L24.0508 104.209C24.051 101.551 25.1071 99.0022 26.9863 97.123C28.8656 95.2439 31.4147 94.1876 34.0723 94.1875C36.73 94.1875 39.2798 95.2438 41.1592 97.123C43.0383 99.0022 44.0936 101.551 44.0938 104.209L44.0938 110.222L60.1279 110.222C62.254 110.222 64.2934 111.067 65.7969 112.57C67.3003 114.074 68.1454 116.113 68.1455 118.239L68.1455 134.273L74.1582 134.273C76.8159 134.273 79.3648 135.33 81.2441 137.209C83.1234 139.088 84.1796 141.637 84.1797 144.295C84.1797 146.953 83.1233 149.502 81.2441 151.381C79.3648 153.26 76.8159 154.316 74.1582 154.316L68.1455 154.316L68.1455 170.351C68.1455 172.477 67.3002 174.516 65.7969 176.02C64.2934 177.523 62.254 178.367 60.1279 178.367L44.8955 178.367L44.8955 172.354C44.8951 166.342 40.0848 161.531 34.0723 161.531C28.0598 161.531 23.2494 166.342 23.249 172.354L23.249 178.367L8.0166 178.367C5.89042 178.367 3.8511 177.523 2.34766 176.02C0.844318 174.516 2.15258e-05 172.477 3.50418e-07 170.351L1.01625e-06 155.118L6.0127 155.118Z" fill="#F2D389"/>
<path d="M108.798 22.9532L114.734 23.9203C120.669 24.8874 124.642 30.4094 123.676 36.3443C122.708 42.279 117.187 46.253 111.253 45.2861L105.317 44.3189L102.868 59.3541C102.526 61.4528 103.032 63.6021 104.274 65.3279C105.516 67.0536 107.393 68.2147 109.492 68.5567L125.318 71.1355L124.351 77.0709C123.924 79.6941 124.556 82.3795 126.109 84.5367C127.662 86.6939 130.007 88.1461 132.631 88.5736C135.254 89.001 137.94 88.3687 140.097 86.816C142.254 85.2633 143.707 82.9175 144.134 80.2943L145.101 74.3589L160.928 76.9377C163.026 77.2795 165.175 76.7743 166.9 75.5323C168.626 74.2901 169.787 72.4124 170.129 70.3137L178.509 18.8776C178.851 16.7791 178.346 14.6307 177.104 12.9049C175.862 11.1792 173.985 10.0172 171.886 9.67518L169.992 9.36642L169.992 9.3616L131.688 3.12027L131.687 3.12509L120.451 1.2942C118.352 0.952342 116.203 1.45844 114.478 2.70059C112.752 3.94279 111.59 5.81945 111.248 7.91806L108.798 22.9532Z" fill="#A6CCF4"/>
</svg>