<svg xmlns="http://www.w3.org/2000/svg" width="402" height="668" viewBox="0 0 402 668" fill="none">
<g opacity="0.7" filter="url(#filter0_f_3291_2608)">
<path d="M241.311 565.124C245.639 526.059 229.567 504.786 190.502 500.458C151.437 496.129 129.197 513.157 124.869 552.222L120.541 591.287L9.26168 578.957C-4.55262 577.427 -17.1934 570.472 -25.8793 559.621C-34.5652 548.771 -38.5853 534.914 -37.0547 521.1L-25.5123 416.925L-64.5779 412.596C-81.8457 410.683 -97.6463 401.989 -108.504 388.426C-119.361 374.862 -124.386 357.542 -122.472 340.274C-120.559 323.006 -111.865 307.205 -98.3015 296.347C-84.7385 285.49 -67.4178 280.465 -50.15 282.379L-11.0844 286.707L0.45791 182.533C1.98852 168.719 8.94447 156.078 19.795 147.392C30.6455 138.706 44.5023 134.686 58.3166 136.217L162.491 147.759L166.819 108.694C168.732 91.4263 177.427 75.6251 190.99 64.7676C204.553 53.9102 221.874 48.8856 239.142 50.7989C256.41 52.7122 272.211 61.4067 283.068 74.9697C293.925 88.5329 298.95 105.854 297.037 123.122L292.708 162.187L396.883 173.729C410.698 175.26 423.338 182.216 432.024 193.066C440.71 203.917 444.729 217.774 443.199 231.588L405.686 570.155C404.155 583.969 397.2 596.61 386.35 605.296C375.5 613.982 361.643 618.001 347.829 616.47L236.982 604.189L241.311 565.124Z" fill="#90D79D" fill-opacity="0.25"/>
</g>
<defs>
<filter id="filter0_f_3291_2608" x="-173.271" y="0.000389099" width="667.189" height="667.189" filterUnits="userSpaceOnUse" color-interpolation-filters="sRGB">
<feFlood flood-opacity="0" result="BackgroundImageFix"/>
<feBlend mode="normal" in="SourceGraphic" in2="BackgroundImageFix" result="shape"/>
<feGaussianBlur stdDeviation="25.2" result="effect1_foregroundBlur_3291_2608"/>
</filter>
</defs>
</svg>