<svg width="300" height="300" viewBox="0 0 300 300" fill="none" xmlns="http://www.w3.org/2000/svg">
<rect width="300" height="300" rx="38.3387" fill="white"/>
<g filter="url(#filter0_i_3628_9611)">
<path d="M255.26 137.31H246.191V117.83C246.191 110.113 239.876 103.799 232.158 103.799H165.053C157.335 103.799 151.021 110.113 151.021 117.83V184.927C151.021 192.644 157.335 198.958 165.053 198.958H184.942V207.324C184.942 215.064 191.272 221.392 199.012 221.392C206.752 221.392 213.081 215.064 213.081 207.324V198.958H232.158C239.876 198.958 246.191 192.644 246.191 184.927V165.446H255.26C263 165.446 269.33 159.117 269.33 151.378C269.33 143.639 263 137.31 255.26 137.31Z" fill="url(#paint0_radial_3628_9611)"/>
</g>
<g filter="url(#filter1_d_3628_9611)">
<circle cx="216.384" cy="144.8" r="8.89188" fill="#0A0A0A"/>
</g>
<g filter="url(#filter2_d_3628_9611)">
<circle cx="186.229" cy="144.8" r="8.89188" fill="#0A0A0A"/>
</g>
<g filter="url(#filter3_i_3628_9611)">
<path d="M159.622 136.935H151.109V117.458C151.109 109.577 144.684 103.128 136.832 103.128H117.011V93.8681C117.011 85.9645 110.572 79.5 102.698 79.5C94.8232 79.5 88.3839 85.9645 88.3839 93.8681V103.128H68.5627C60.7108 103.128 54.2866 109.577 54.2866 117.458V137.349H44.9846C37.1102 137.349 30.6709 143.814 30.6709 151.717C30.6709 159.621 37.1102 166.085 44.9846 166.085H54.2866V185.976C54.2866 193.857 60.7108 200.307 68.5627 200.307H88.3839V193.963C88.3839 192.516 88.6018 191.107 89.0075 189.789C90.8033 183.904 96.2733 179.595 102.698 179.595C110.572 179.595 117.011 186.059 117.011 193.963V200.307H136.832C144.684 200.307 151.109 193.857 151.109 185.976V165.671H159.622C167.496 165.671 173.935 159.207 173.935 151.303C173.935 143.399 167.496 136.935 159.622 136.935Z" fill="url(#paint1_radial_3628_9611)"/>
</g>
<g filter="url(#filter4_d_3628_9611)">
<path d="M94.2638 145.395C94.2638 151.596 91.4901 156.624 87.2008 156.624C82.9114 156.624 80.1377 151.596 80.1377 145.395C80.1377 139.193 82.9114 134.166 87.2008 134.166C91.4901 134.166 94.2638 139.193 94.2638 145.395Z" fill="#0A0A0A"/>
</g>
<g filter="url(#filter5_d_3628_9611)">
<path d="M125.421 138.512C125.421 146.18 121.736 152.397 116.743 152.397C111.75 152.397 108.064 146.18 108.064 138.512C108.064 130.843 111.75 124.626 116.743 124.626C121.736 124.626 125.421 130.843 125.421 138.512Z" fill="#0A0A0A"/>
</g>
<defs>
<filter id="filter0_i_3628_9611" x="151.021" y="103.799" width="118.309" height="117.594" filterUnits="userSpaceOnUse" color-interpolation-filters="sRGB">
<feFlood flood-opacity="0" result="BackgroundImageFix"/>
<feBlend mode="normal" in="SourceGraphic" in2="BackgroundImageFix" result="shape"/>
<feColorMatrix in="SourceAlpha" type="matrix" values="0 0 0 0 0 0 0 0 0 0 0 0 0 0 0 0 0 0 127 0" result="hardAlpha"/>
<feOffset/>
<feGaussianBlur stdDeviation="5.5502"/>
<feComposite in2="hardAlpha" operator="arithmetic" k2="-1" k3="1"/>
<feColorMatrix type="matrix" values="0 0 0 0 1 0 0 0 0 1 0 0 0 0 0.896935 0 0 0 1 0"/>
<feBlend mode="normal" in2="shape" result="effect1_innerShadow_3628_9611"/>
</filter>
<filter id="filter1_d_3628_9611" x="204.162" y="133.688" width="26.6645" height="26.6645" filterUnits="userSpaceOnUse" color-interpolation-filters="sRGB">
<feFlood flood-opacity="0" result="BackgroundImageFix"/>
<feColorMatrix in="SourceAlpha" type="matrix" values="0 0 0 0 0 0 0 0 0 0 0 0 0 0 0 0 0 0 127 0" result="hardAlpha"/>
<feOffset dx="1.11004" dy="2.22008"/>
<feGaussianBlur stdDeviation="2.22008"/>
<feComposite in2="hardAlpha" operator="out"/>
<feColorMatrix type="matrix" values="0 0 0 0 0.992962 0 0 0 0 1 0 0 0 0 0.915546 0 0 0 1 0"/>
<feBlend mode="normal" in2="BackgroundImageFix" result="effect1_dropShadow_3628_9611"/>
<feBlend mode="normal" in="SourceGraphic" in2="effect1_dropShadow_3628_9611" result="shape"/>
</filter>
<filter id="filter2_d_3628_9611" x="174.007" y="133.688" width="26.6645" height="26.6645" filterUnits="userSpaceOnUse" color-interpolation-filters="sRGB">
<feFlood flood-opacity="0" result="BackgroundImageFix"/>
<feColorMatrix in="SourceAlpha" type="matrix" values="0 0 0 0 0 0 0 0 0 0 0 0 0 0 0 0 0 0 127 0" result="hardAlpha"/>
<feOffset dx="1.11004" dy="2.22008"/>
<feGaussianBlur stdDeviation="2.22008"/>
<feComposite in2="hardAlpha" operator="out"/>
<feColorMatrix type="matrix" values="0 0 0 0 0.992962 0 0 0 0 1 0 0 0 0 0.915546 0 0 0 1 0"/>
<feBlend mode="normal" in2="BackgroundImageFix" result="effect1_dropShadow_3628_9611"/>
<feBlend mode="normal" in="SourceGraphic" in2="effect1_dropShadow_3628_9611" result="shape"/>
</filter>
<filter id="filter3_i_3628_9611" x="30.6709" y="79.5" width="143.265" height="120.807" filterUnits="userSpaceOnUse" color-interpolation-filters="sRGB">
<feFlood flood-opacity="0" result="BackgroundImageFix"/>
<feBlend mode="normal" in="SourceGraphic" in2="BackgroundImageFix" result="shape"/>
<feColorMatrix in="SourceAlpha" type="matrix" values="0 0 0 0 0 0 0 0 0 0 0 0 0 0 0 0 0 0 127 0" result="hardAlpha"/>
<feOffset/>
<feGaussianBlur stdDeviation="5.5502"/>
<feComposite in2="hardAlpha" operator="arithmetic" k2="-1" k3="1"/>
<feColorMatrix type="matrix" values="0 0 0 0 0.827524 0 0 0 0 1 0 0 0 0 0.720309 0 0 0 1 0"/>
<feBlend mode="normal" in2="shape" result="effect1_innerShadow_3628_9611"/>
</filter>
<filter id="filter4_d_3628_9611" x="76.8076" y="131.946" width="23.0063" height="31.3383" filterUnits="userSpaceOnUse" color-interpolation-filters="sRGB">
<feFlood flood-opacity="0" result="BackgroundImageFix"/>
<feColorMatrix in="SourceAlpha" type="matrix" values="0 0 0 0 0 0 0 0 0 0 0 0 0 0 0 0 0 0 127 0" result="hardAlpha"/>
<feOffset dx="1.11004" dy="2.22008"/>
<feGaussianBlur stdDeviation="2.22008"/>
<feComposite in2="hardAlpha" operator="out"/>
<feColorMatrix type="matrix" values="0 0 0 0 0.785432 0 0 0 0 1 0 0 0 0 0.707407 0 0 0 1 0"/>
<feBlend mode="normal" in2="BackgroundImageFix" result="effect1_dropShadow_3628_9611"/>
<feBlend mode="normal" in="SourceGraphic" in2="effect1_dropShadow_3628_9611" result="shape"/>
</filter>
<filter id="filter5_d_3628_9611" x="104.734" y="122.406" width="26.2377" height="36.6518" filterUnits="userSpaceOnUse" color-interpolation-filters="sRGB">
<feFlood flood-opacity="0" result="BackgroundImageFix"/>
<feColorMatrix in="SourceAlpha" type="matrix" values="0 0 0 0 0 0 0 0 0 0 0 0 0 0 0 0 0 0 127 0" result="hardAlpha"/>
<feOffset dx="1.11004" dy="2.22008"/>
<feGaussianBlur stdDeviation="2.22008"/>
<feComposite in2="hardAlpha" operator="out"/>
<feColorMatrix type="matrix" values="0 0 0 0 0.785432 0 0 0 0 1 0 0 0 0 0.707407 0 0 0 1 0"/>
<feBlend mode="normal" in2="BackgroundImageFix" result="effect1_dropShadow_3628_9611"/>
<feBlend mode="normal" in="SourceGraphic" in2="effect1_dropShadow_3628_9611" result="shape"/>
</filter>
<radialGradient id="paint0_radial_3628_9611" cx="0" cy="0" r="1" gradientUnits="userSpaceOnUse" gradientTransform="translate(210.175 162.596) rotate(90) scale(58.7967 59.1545)">
<stop stop-color="#FFD61E"/>
<stop offset="1" stop-color="#FDF383"/>
</radialGradient>
<radialGradient id="paint1_radial_3628_9611" cx="0" cy="0" r="1" gradientUnits="userSpaceOnUse" gradientTransform="translate(102.303 139.903) rotate(90) scale(60.4034 71.6322)">
<stop stop-color="#00B22A"/>
<stop offset="1" stop-color="#01D382"/>
</radialGradient>
</defs>
</svg>
