<svg xmlns="http://www.w3.org/2000/svg" width="16" height="16" viewBox="0 0 16 16" fill="none">
<path d="M8.20384 9.34411C8.69633 9.39461 9.15259 9.62597 9.48435 9.99344C9.8161 10.3609 9.99978 10.8384 9.99984 11.3334C9.99984 12.3614 9.37317 13.2121 8.5305 13.7734C7.68384 14.3388 6.5505 14.6668 5.33317 14.6668C4.11584 14.6668 2.9825 14.3388 2.13584 13.7734C1.29184 13.2134 0.666504 12.3614 0.666504 11.3334C0.666504 10.803 0.877218 10.2943 1.25229 9.91923C1.62736 9.54416 2.13607 9.33345 2.6665 9.33345H7.99984L8.20384 9.34411ZM13.3372 9.33345C13.8676 9.33345 14.3763 9.54416 14.7514 9.91923C15.1265 10.2943 15.3372 10.803 15.3372 11.3334C15.3372 12.2601 14.7612 12.9481 14.0265 13.3708C13.2958 13.7908 12.3398 14.0001 11.3372 14.0001C10.9994 13.9992 10.6701 13.9743 10.3492 13.9254C10.9265 13.2428 11.3345 12.3708 11.3345 11.3334C11.333 10.6116 11.0971 9.90977 10.6625 9.33345H13.3372ZM5.33584 1.99478C5.73557 1.98654 6.13292 2.05817 6.50461 2.20548C6.8763 2.3528 7.21484 2.57283 7.50039 2.85267C7.78594 3.13252 8.01275 3.46655 8.16753 3.83519C8.32231 4.20383 8.40195 4.59966 8.40177 4.99947C8.4016 5.39929 8.32161 5.79505 8.1665 6.16355C8.01139 6.53205 7.78428 6.86588 7.49848 7.14547C7.21268 7.42507 6.87395 7.6448 6.50213 7.79178C6.13031 7.93876 5.73289 8.01004 5.33317 8.00145C4.54759 7.98489 3.79977 7.6612 3.25005 7.09977C2.70032 6.53834 2.39245 5.78386 2.39245 4.99811C2.39245 4.21236 2.70032 3.45789 3.25005 2.89646C3.79977 2.33503 4.54759 2.01133 5.33317 1.99478M11.6665 3.32945C11.9729 3.32945 12.2763 3.3898 12.5594 3.50706C12.8425 3.62432 13.0997 3.79619 13.3164 4.01286C13.5331 4.22953 13.705 4.48676 13.8222 4.76985C13.9395 5.05294 13.9998 5.35636 13.9998 5.66278C13.9998 5.9692 13.9395 6.27261 13.8222 6.55571C13.705 6.8388 13.5331 7.09603 13.3164 7.3127C13.0997 7.52937 12.8425 7.70124 12.5594 7.8185C12.2763 7.93576 11.9729 7.99611 11.6665 7.99611C11.0477 7.99611 10.4542 7.75028 10.0166 7.3127C9.579 6.87511 9.33317 6.28162 9.33317 5.66278C9.33317 5.04394 9.579 4.45045 10.0166 4.01286C10.4542 3.57528 11.0477 3.32945 11.6665 3.32945Z" fill="#2E6136"/>
</svg>