<svg xmlns="http://www.w3.org/2000/svg" width="21" height="21" viewBox="0 0 21 21" fill="none">
<path d="M3 0H18C18.7956 0 19.5587 0.316071 20.1213 0.87868C20.6839 1.44129 21 2.20435 21 3V18C21 18.7956 20.6839 19.5587 20.1213 20.1213C19.5587 20.6839 18.7956 21 18 21H3C2.20435 21 1.44129 20.6839 0.87868 20.1213C0.316071 19.5587 0 18.7956 0 18V3C0 2.20435 0.316071 1.44129 0.87868 0.87868C1.44129 0.316071 2.20435 0 3 0ZM3 6V18H18V6H3ZM10.5 14.121L8.379 16.242C8.24063 16.3853 8.07511 16.4995 7.89211 16.5782C7.7091 16.6568 7.51227 16.6981 7.3131 16.6999C7.11393 16.7016 6.91641 16.6637 6.73207 16.5882C6.54772 16.5128 6.38025 16.4014 6.23941 16.2606C6.09857 16.1198 5.98719 15.9523 5.91177 15.7679C5.83635 15.5836 5.79839 15.3861 5.80012 15.1869C5.80186 14.9877 5.84323 14.7909 5.92185 14.6079C6.00046 14.4249 6.11473 14.2594 6.258 14.121L8.379 12L6.258 9.879C6.11473 9.74063 6.00046 9.57511 5.92185 9.39211C5.84323 9.2091 5.80186 9.01227 5.80012 8.8131C5.79839 8.61393 5.83635 8.41641 5.91177 8.23207C5.98719 8.04772 6.09857 7.88025 6.23941 7.73941C6.38025 7.59857 6.54772 7.48719 6.73207 7.41177C6.91641 7.33635 7.11393 7.29839 7.3131 7.30012C7.51227 7.30186 7.7091 7.34323 7.89211 7.42185C8.07511 7.50046 8.24063 7.61473 8.379 7.758L10.5 9.879L12.621 7.758C12.7594 7.61473 12.9249 7.50046 13.1079 7.42185C13.2909 7.34323 13.4877 7.30186 13.6869 7.30012C13.8861 7.29839 14.0836 7.33635 14.2679 7.41177C14.4523 7.48719 14.6198 7.59857 14.7606 7.73941C14.9014 7.88025 15.0128 8.04772 15.0882 8.23207C15.1637 8.41641 15.2016 8.61393 15.1999 8.8131C15.1981 9.01227 15.1568 9.2091 15.0782 9.39211C14.9995 9.57511 14.8853 9.74063 14.742 9.879L12.621 12L14.742 14.121C15.0152 14.4039 15.1664 14.7828 15.163 15.1761C15.1596 15.5694 15.0018 15.9456 14.7237 16.2237C14.4456 16.5018 14.0694 16.6596 13.6761 16.663C13.2828 16.6664 12.9039 16.5152 12.621 16.242L10.5 14.121Z" fill="#2E6136"/>
</svg>