<svg width="136" height="56" viewBox="0 0 136 56" fill="none" xmlns="http://www.w3.org/2000/svg">
<path d="M16.32 31.344V28.72H13.184C12.416 28.72 12 28.368 12 27.44V26.032H20.384V31.28C20.384 35.472 17.824 38.352 12.288 38.352C5.472 38.352 1.76 35.088 1.76 26.896C1.76 18.704 5.312 15.44 12.128 15.44C16.064 15.44 17.856 16.656 19.776 18.672L17.728 20.912C16.224 19.568 14.784 18.128 12.096 18.128C7.36 18.128 5.824 21.008 5.824 26.896C5.824 32.784 7.552 35.664 12.256 35.664C15.648 35.664 16.32 32.976 16.32 31.344ZM32.2853 37.616H30.7173C26.1093 37.616 23.1653 34.384 23.1653 29.872C23.1653 25.136 26.5253 22.32 30.6533 22.32H38.5573V37.584H34.4933V25.008H31.1333C28.5093 25.008 27.1013 27.12 27.1013 29.872C27.1013 32.656 28.5733 34.896 31.0693 34.896H33.4693V36.336C33.4693 37.264 33.0533 37.616 32.2853 37.616ZM52.3665 37.84H49.2945C45.9345 37.84 44.4625 35.792 44.4625 32.464V25.008H41.4225V22.32H44.4625V17.392H48.5265V22.32H52.2065V25.008H48.5265V32.72C48.5265 34.16 48.8145 35.152 50.2545 35.152H52.3665V37.84ZM59.0185 15.12V22.288H63.4985C67.3705 22.288 69.4505 24.976 69.4505 28.688V38H65.4185V28.336C65.4185 26.512 64.7145 24.976 62.8905 24.976H59.0185V38H54.9545V15.12H59.0185ZM80.4185 35.312H85.7945V38H80.8985C74.6265 38 71.9065 34.224 71.9065 29.776C71.9065 25.52 74.4985 21.744 79.4585 21.744C83.9385 21.744 86.6585 24.848 86.6585 29.488C86.5625 30.736 86.0185 32.016 84.2265 32.016H76.1625C76.3865 33.68 77.6985 35.312 80.4185 35.312ZM79.4585 24.432C77.0265 24.432 75.8425 26.832 75.9065 29.04H81.9545C82.3705 29.04 82.5945 28.72 82.5945 28.368C82.5945 26.672 81.5065 24.432 79.4585 24.432ZM89.19 37.872V28.816C89.19 24.336 91.046 22.32 95.75 22.32H100.582V25.008H96.326C94.022 25.008 93.254 26.096 93.254 28.304V38H89.318C89.222 38 89.19 37.968 89.19 37.872Z" fill="#2E6136"/>
</svg>
