<svg xmlns="http://www.w3.org/2000/svg" width="21" height="21" viewBox="0 0 21 21" fill="none">
<path d="M10.5 12C16.275 12 21 15.75 21 18.75C21 19.3467 20.7629 19.919 20.341 20.341C19.919 20.7629 19.3467 21 18.75 21H2.25C1.65326 21 1.08097 20.7629 0.65901 20.341C0.237053 19.919 0 19.3467 0 18.75C0 15.75 4.725 12 10.5 12ZM10.5 0C11.8924 0 13.2277 0.553123 14.2123 1.53769C15.1969 2.52226 15.75 3.85761 15.75 5.25C15.75 6.64239 15.1969 7.97774 14.2123 8.96231C13.2277 9.94688 11.8924 10.5 10.5 10.5C9.10761 10.5 7.77225 9.94688 6.78769 8.96231C5.80312 7.97774 5.25 6.64239 5.25 5.25C5.25 3.85761 5.80312 2.52226 6.78769 1.53769C7.77225 0.553123 9.10761 0 10.5 0Z" fill="#2E6136"/>
</svg>