<svg xmlns="http://www.w3.org/2000/svg" width="20" height="19" viewBox="0 0 20 19" fill="none">
<path d="M18 7.063V1C18 0.734784 17.8946 0.48043 17.7071 0.292893C17.5196 0.105357 17.2652 0 17 0H16C14.021 1.979 10.303 3.087 8 3.613V14.387C10.303 14.913 14.021 16.021 16 18H17C17.2652 18 17.5196 17.8946 17.7071 17.7071C17.8946 17.5196 18 17.2652 18 17V10.937C18.4298 10.8265 18.8106 10.5762 19.0825 10.2255C19.3544 9.87488 19.502 9.44374 19.502 9C19.502 8.55626 19.3544 8.12512 19.0825 7.77445C18.8106 7.42378 18.4298 7.1735 18 7.063ZM2 4C1.46957 4 0.960859 4.21071 0.585786 4.58579C0.210714 4.96086 0 5.46957 0 6V12C0 12.5304 0.210714 13.0391 0.585786 13.4142C0.960859 13.7893 1.46957 14 2 14H3L4 19H6V4H2Z" fill="#2E6136"/>
</svg>