<svg xmlns="http://www.w3.org/2000/svg" width="12" height="21" viewBox="0 0 12 21" fill="none">
<path d="M0.532937 0.552492C0.363998 0.726487 0.229969 0.93316 0.13852 1.16068C0.0470718 1.3882 0 1.6321 0 1.87842C0 2.12474 0.0470718 2.36864 0.13852 2.59616C0.229969 2.82368 0.363998 3.03035 0.532937 3.20434L7.60367 10.5016L0.532937 17.7989C0.192198 18.1506 0.000771642 18.6275 0.000771642 19.1249C0.000771642 19.6222 0.192198 20.0991 0.532937 20.4508C0.873677 20.8024 1.33582 21 1.8177 21C2.29958 21 2.76172 20.8024 3.10246 20.4508L11.4671 11.8182C11.636 11.6442 11.77 11.4375 11.8615 11.21C11.9529 10.9825 12 10.7386 12 10.4922C12 10.2459 11.9529 10.002 11.8615 9.7745C11.77 9.54698 11.636 9.3403 11.4671 9.16631L3.10246 0.533684C2.40996 -0.180999 1.24366 -0.180999 0.532937 0.552492Z" fill="#5E5E5D"/>
</svg>