<svg xmlns="http://www.w3.org/2000/svg" width="21" height="20" viewBox="0 0 21 20" fill="none">
<path d="M2 9C0.9 9 0 9.9 0 11V18C0 19.1 0.9 20 2 20C3.1 20 4 19.1 4 18V11C4 9.9 3.1 9 2 9ZM9 3.3C9 1.45 10.45 0 12.3 0C13.34 0 14.35 0.49 15 1.25C15.65 0.49 16.66 0 17.7 0C19.55 0 21 1.45 21 3.3C21 5.4 18.5 7.81 15.67 10.39C15.4857 10.5587 15.2449 10.6522 14.995 10.6522C14.7451 10.6522 14.5043 10.5587 14.32 10.39C11.5 7.81 9 5.4 9 3.3ZM18.99 15H12.16C12.0474 14.9987 11.9358 14.9784 11.83 14.94L10.36 14.43C10.2987 14.4087 10.2422 14.3755 10.1938 14.3321C10.1454 14.2888 10.1061 14.2364 10.0782 14.1777C10.0503 14.1191 10.0343 14.0555 10.0312 13.9907C10.0281 13.9259 10.0379 13.861 10.06 13.8C10.15 13.54 10.44 13.4 10.7 13.5L11.82 13.93C11.93 13.97 12.06 14 12.18 14H14.81C15.46 14 15.99 13.47 15.99 12.82C15.99 12.33 15.68 11.89 15.22 11.71L8.3 9.13C8.08 9.04 7.84 9 7.6 9H6V18.02L12.37 19.83C12.78 19.95 13.22 19.93 13.62 19.78L21 17C21 15.89 20.1 15 18.99 15Z" fill="#2E6136"/>
</svg>