<svg width="105" height="105" viewBox="0 0 105 105" fill="none" xmlns="http://www.w3.org/2000/svg">
<g opacity="0.7">
<mask id="path-1-outside-1_3291_3080" maskUnits="userSpaceOnUse" x="-6.39951" y="-12.6871" width="119.705" height="119.705" fill="black">
<rect fill="white" x="-6.39951" y="-12.6871" width="119.705" height="119.705"/>
<path d="M34.632 4.27304C37.4585 3.62919 40.4248 4.13446 42.8782 5.67766C45.3314 7.22087 47.0709 9.67576 47.714 12.5019L49.1686 18.8952L66.2201 15.0109C68.4811 14.4959 70.8542 14.9006 72.8168 16.135C74.7794 17.3695 76.1712 19.3332 76.6858 21.594L80.5658 38.6444L86.9608 37.1884C89.7871 36.5447 92.7527 37.0502 95.2059 38.5933C97.6592 40.1365 99.3996 42.5911 100.043 45.4173C100.686 48.2433 100.18 51.2094 98.636 53.6629C97.0922 56.1166 94.6366 57.8572 91.8102 58.5011L85.4165 59.9578L89.2963 77.0073C89.8108 79.2683 89.4053 81.6415 88.1702 83.6045C86.9352 85.5674 84.9716 86.9595 82.7105 87.4746L66.5113 91.1649L65.0567 84.7716C63.6017 78.3778 57.3224 74.4272 50.9283 75.8836C44.5341 77.3401 40.5829 83.6208 42.0378 90.0146L43.4926 96.4088L27.2943 100.099C25.0333 100.614 22.6602 100.209 20.6976 98.9747C18.7349 97.7401 17.3432 95.7766 16.8286 93.5157L13.1426 77.3175L13.1455 77.3168L7.90488 54.2994L7.90393 54.2997L4.21815 38.1024C3.70365 35.8415 4.10832 33.4683 5.34323 31.5054C6.57827 29.5424 8.54273 28.1501 10.8039 27.6351L27.8553 23.7508L26.3996 17.3568C25.7565 14.5308 26.2628 11.5648 27.8063 9.11121C29.3501 6.65749 31.8056 4.91688 34.632 4.27304Z"/>
</mask>
<path d="M34.632 4.27304C37.4585 3.62919 40.4248 4.13446 42.8782 5.67766C45.3314 7.22087 47.0709 9.67576 47.714 12.5019L49.1686 18.8952L66.2201 15.0109C68.4811 14.4959 70.8542 14.9006 72.8168 16.135C74.7794 17.3695 76.1712 19.3332 76.6858 21.594L80.5658 38.6444L86.9608 37.1884C89.7871 36.5447 92.7527 37.0502 95.2059 38.5933C97.6592 40.1365 99.3996 42.5911 100.043 45.4173C100.686 48.2433 100.18 51.2094 98.636 53.6629C97.0922 56.1166 94.6366 57.8572 91.8102 58.5011L85.4165 59.9578L89.2963 77.0073C89.8108 79.2683 89.4053 81.6415 88.1702 83.6045C86.9352 85.5674 84.9716 86.9595 82.7105 87.4746L66.5113 91.1649L65.0567 84.7716C63.6017 78.3778 57.3224 74.4272 50.9283 75.8836C44.5341 77.3401 40.5829 83.6208 42.0378 90.0146L43.4926 96.4088L27.2943 100.099C25.0333 100.614 22.6602 100.209 20.6976 98.9747C18.7349 97.7401 17.3432 95.7766 16.8286 93.5157L13.1426 77.3175L13.1455 77.3168L7.90488 54.2994L7.90393 54.2997L4.21815 38.1024C3.70365 35.8415 4.10832 33.4683 5.34323 31.5054C6.57827 29.5424 8.54273 28.1501 10.8039 27.6351L27.8553 23.7508L26.3996 17.3568C25.7565 14.5308 26.2628 11.5648 27.8063 9.11121C29.3501 6.65749 31.8056 4.91688 34.632 4.27304Z" fill="#DCECDF"/>
<path d="M34.632 4.27304L33.7436 0.372945L33.7436 0.372946L34.632 4.27304ZM42.8782 5.67766L45.008 2.29184L45.0079 2.29179L42.8782 5.67766ZM47.714 12.5019L51.6143 11.6145L51.6143 11.6144L47.714 12.5019ZM49.1686 18.8952L45.2683 19.7826L46.1559 23.6839L50.057 22.7953L49.1686 18.8952ZM66.2201 15.0109L65.3316 11.1108L65.3316 11.1108L66.2201 15.0109ZM72.8168 16.135L74.9466 12.7492L74.9465 12.7491L72.8168 16.135ZM76.6858 21.594L80.5861 20.7064L80.586 20.7062L76.6858 21.594ZM80.5658 38.6444L76.6655 39.532L77.5532 43.4327L81.4538 42.5446L80.5658 38.6444ZM86.9608 37.1884L87.8488 41.0886L87.849 41.0886L86.9608 37.1884ZM95.2059 38.5933L97.3357 35.2074L97.3357 35.2074L95.2059 38.5933ZM100.043 45.4173L103.943 44.5299L103.943 44.5298L100.043 45.4173ZM98.636 53.6629L102.022 55.793L102.022 55.7929L98.636 53.6629ZM91.8102 58.5011L90.9218 54.601L90.9216 54.601L91.8102 58.5011ZM85.4165 59.9578L84.5279 56.0578L80.6288 56.9461L81.5162 60.8454L85.4165 59.9578ZM89.2963 77.0073L85.396 77.8949L85.396 77.8949L89.2963 77.0073ZM88.1702 83.6045L91.5559 85.7346L91.5559 85.7346L88.1702 83.6045ZM82.7105 87.4746L83.599 91.3747L83.599 91.3747L82.7105 87.4746ZM66.5113 91.1649L62.611 92.0523L63.4986 95.9537L67.3997 95.065L66.5113 91.1649ZM65.0567 84.7716L68.957 83.8842L68.957 83.8841L65.0567 84.7716ZM50.9283 75.8836L50.0399 71.9835L50.0399 71.9835L50.9283 75.8836ZM42.0378 90.0146L45.9381 89.1271L45.9381 89.1271L42.0378 90.0146ZM43.4926 96.4088L44.3811 100.309L48.2801 99.4206L47.393 95.5213L43.4926 96.4088ZM27.2943 100.099L28.1828 103.999L28.1828 103.999L27.2943 100.099ZM20.6976 98.9747L18.5678 102.361L18.5679 102.361L20.6976 98.9747ZM16.8286 93.5157L12.9283 94.4032L12.9283 94.4033L16.8286 93.5157ZM13.1426 77.3175L12.2546 73.4173L8.35489 74.3052L9.24231 78.205L13.1426 77.3175ZM13.1455 77.3168L14.0335 81.217L17.9336 80.329L17.0457 76.4288L13.1455 77.3168ZM7.90488 54.2994L11.8051 53.4115L10.9171 49.5113L7.01689 50.3993L7.90488 54.2994ZM7.90393 54.2997L4.00363 55.1872L4.89127 59.0879L8.79192 58.1998L7.90393 54.2997ZM4.21815 38.1024L8.11844 37.2149L8.11843 37.2148L4.21815 38.1024ZM5.34323 31.5054L1.95758 29.3753L1.9575 29.3754L5.34323 31.5054ZM10.8039 27.6351L11.6923 31.5351L11.6923 31.5351L10.8039 27.6351ZM27.8553 23.7508L28.7438 27.6509L32.6434 26.7625L31.7555 22.8628L27.8553 23.7508ZM26.3996 17.3568L22.4992 18.2443L22.4994 18.2448L26.3996 17.3568ZM27.8063 9.11121L24.4207 6.98109L24.4205 6.9813L27.8063 9.11121ZM34.632 4.27304L35.5205 8.17313C37.3126 7.76488 39.1933 8.08533 40.7484 9.06353L42.8782 5.67766L45.0079 2.29179C41.6563 0.183588 37.6043 -0.506492 33.7436 0.372945L34.632 4.27304ZM42.8782 5.67766L40.7483 9.06348C42.3032 10.0416 43.406 11.5977 43.8137 13.3895L47.714 12.5019L51.6143 11.6144C50.7358 7.75382 48.3596 4.40016 45.008 2.29184L42.8782 5.67766ZM47.714 12.5019L43.8137 13.3893L45.2683 19.7826L49.1686 18.8952L53.0689 18.0078L51.6143 11.6145L47.714 12.5019ZM49.1686 18.8952L50.057 22.7953L67.1085 18.911L66.2201 15.0109L65.3316 11.1108L48.2802 14.9951L49.1686 18.8952ZM66.2201 15.0109L67.1085 18.911C68.3347 18.6317 69.6222 18.8511 70.6872 19.521L72.8168 16.135L74.9465 12.7491C72.0862 10.95 68.6276 10.36 65.3316 11.1108L66.2201 15.0109ZM72.8168 16.135L70.6871 19.5209C71.7516 20.1905 72.5065 21.2556 72.7856 22.4818L76.6858 21.594L80.586 20.7062C79.8359 17.4108 77.8072 14.5485 74.9466 12.7492L72.8168 16.135ZM76.6858 21.594L72.7855 22.4816L76.6655 39.532L80.5658 38.6444L84.4661 37.7569L80.5861 20.7064L76.6858 21.594ZM80.5658 38.6444L81.4538 42.5446L87.8488 41.0886L86.9608 37.1884L86.0728 33.2882L79.6778 34.7442L80.5658 38.6444ZM86.9608 37.1884L87.849 41.0886C89.6409 40.6805 91.5209 41.0009 93.0762 41.9791L95.2059 38.5933L97.3357 35.2074C93.9844 33.0994 89.9332 32.409 86.0725 33.2883L86.9608 37.1884ZM95.2059 38.5933L93.0761 41.9791C94.6318 42.9577 95.7349 44.5139 96.1424 46.3049L100.043 45.4173L103.943 44.5298C103.064 40.6683 100.687 37.3153 97.3357 35.2074L95.2059 38.5933ZM100.043 45.4173L96.1424 46.3047C96.55 48.0961 96.2292 49.9768 95.2502 51.5329L98.636 53.6629L102.022 55.7929C104.13 52.4419 104.821 48.3906 103.943 44.5299L100.043 45.4173ZM98.636 53.6629L95.2503 51.5328C94.2712 53.0889 92.7139 54.1928 90.9218 54.601L91.8102 58.5011L92.6986 62.4012C96.5594 61.5217 99.9131 59.1444 102.022 55.793L98.636 53.6629ZM91.8102 58.5011L90.9216 54.601L84.5279 56.0578L85.4165 59.9578L86.305 63.8579L92.6988 62.4012L91.8102 58.5011ZM85.4165 59.9578L81.5162 60.8454L85.396 77.8949L89.2963 77.0073L93.1965 76.1197L89.3167 59.0703L85.4165 59.9578ZM89.2963 77.0073L85.396 77.8949C85.6749 79.1205 85.4553 80.4084 84.7846 81.4744L88.1702 83.6045L91.5559 85.7346C93.3553 82.8747 93.9467 79.4161 93.1965 76.1197L89.2963 77.0073ZM88.1702 83.6045L84.7846 81.4744C84.1142 82.5399 83.0487 83.2951 81.822 83.5746L82.7105 87.4746L83.599 91.3747C86.8946 90.624 89.7562 88.595 91.5559 85.7346L88.1702 83.6045ZM82.7105 87.4746L81.8221 83.5746L65.6228 87.2648L66.5113 91.1649L67.3997 95.065L83.599 91.3747L82.7105 87.4746ZM66.5113 91.1649L70.4116 90.2775L68.957 83.8842L65.0567 84.7716L61.1564 85.659L62.611 92.0523L66.5113 91.1649ZM65.0567 84.7716L68.957 83.8841C67.0117 75.336 58.5884 70.0364 50.0399 71.9835L50.9283 75.8836L51.8166 79.7837C56.0564 78.818 60.1917 81.4197 61.1564 85.6592L65.0567 84.7716ZM50.9283 75.8836L50.0399 71.9835C41.4923 73.9306 36.1925 82.3544 38.1375 90.9021L42.0378 90.0146L45.9381 89.1271C44.9733 84.8872 47.576 80.7497 51.8167 79.7837L50.9283 75.8836ZM42.0378 90.0146L38.1375 90.902L39.5923 97.2962L43.4926 96.4088L47.393 95.5213L45.9381 89.1271L42.0378 90.0146ZM43.4926 96.4088L42.6042 92.5087L26.4059 96.1987L27.2943 100.099L28.1828 103.999L44.3811 100.309L43.4926 96.4088ZM27.2943 100.099L26.4059 96.1987C25.1797 96.478 23.8922 96.2586 22.8273 95.5887L20.6976 98.9747L18.5679 102.361C21.4282 104.16 24.8869 104.75 28.1828 103.999L27.2943 100.099ZM20.6976 98.9747L22.8273 95.5888C21.7627 94.9191 21.0079 93.8542 20.7289 92.6281L16.8286 93.5157L12.9283 94.4033C13.6784 97.6991 15.7072 100.561 18.5678 102.361L20.6976 98.9747ZM16.8286 93.5157L20.7289 92.6282L17.0429 76.43L13.1426 77.3175L9.24231 78.205L12.9283 94.4032L16.8286 93.5157ZM13.1426 77.3175L14.0306 81.2177L14.0335 81.217L13.1455 77.3168L12.2575 73.4166L12.2546 73.4173L13.1426 77.3175ZM13.1455 77.3168L17.0457 76.4288L11.8051 53.4115L7.90488 54.2994L4.00469 55.1874L9.24528 78.2048L13.1455 77.3168ZM7.90488 54.2994L7.01689 50.3993L7.01593 50.3995L7.90393 54.2997L8.79192 58.1998L8.79287 58.1996L7.90488 54.2994ZM7.90393 54.2997L11.8042 53.4121L8.11844 37.2149L4.21815 38.1024L0.317856 38.9899L4.00363 55.1872L7.90393 54.2997ZM4.21815 38.1024L8.11843 37.2148C7.83932 35.9883 8.05884 34.7006 8.72895 33.6354L5.34323 31.5054L1.9575 29.3754C0.157805 32.2361 -0.432022 35.6947 0.317863 38.99L4.21815 38.1024ZM5.34323 31.5054L8.72887 33.6355C9.39906 32.5703 10.4653 31.8147 11.6923 31.5351L10.8039 27.6351L9.91545 23.735C6.6202 24.4856 3.75747 26.5145 1.95758 29.3753L5.34323 31.5054ZM10.8039 27.6351L11.6923 31.5351L28.7438 27.6509L27.8553 23.7508L26.9669 19.8507L9.91544 23.735L10.8039 27.6351ZM27.8553 23.7508L31.7555 22.8628L30.2997 16.4688L26.3996 17.3568L22.4994 18.2448L23.9551 24.6388L27.8553 23.7508ZM26.3996 17.3568L30.2999 16.4693C29.8923 14.6782 30.213 12.7974 31.1921 11.2411L27.8063 9.11121L24.4205 6.9813C22.3126 10.3321 21.6207 14.3835 22.4992 18.2443L26.3996 17.3568ZM27.8063 9.11121L31.1919 11.2413C32.171 9.6852 33.7284 8.58136 35.5205 8.17312L34.632 4.27304L33.7436 0.372946C29.8829 1.25241 26.5292 3.62978 24.4207 6.98109L27.8063 9.11121Z" fill="#90BB98" mask="url(#path-1-outside-1_3291_3080)"/>
</g>
</svg>
