<svg width="105" height="105" viewBox="-9 -9 105 105" fill="none" xmlns="http://www.w3.org/2000/svg">
  <defs>
    <path id="community-puzzle" d="M32.5783 0.0268373C35.255 -0.168072 37.8995 0.70842 39.9296 2.46306C41.9598 4.21786 43.2093 6.70806 43.4036 9.38464L43.8439 15.4399L59.9925 14.2639C62.1339 14.108 64.2498 14.8088 65.8739 16.2126C67.4979 17.6164 68.4974 19.6082 68.6528 21.7493L69.8249 37.8963L75.8811 37.456C78.5579 37.2611 81.2023 38.1374 83.2324 39.8922C85.2625 41.647 86.512 44.1363 86.7063 46.8128C86.9006 49.4894 86.0236 52.1338 84.2682 54.1642C82.5128 56.1946 80.0225 57.4453 77.3457 57.6402L71.2904 58.0805L72.4625 74.2284C72.6179 76.3696 71.916 78.4847 70.5118 80.109C69.1075 81.7333 67.1157 82.734 64.9742 82.8899L49.633 84.0063L49.1938 77.9519C48.7542 71.8967 43.5572 67.4045 37.5014 67.8455C31.4458 68.2866 26.9535 73.4839 27.393 79.5389L27.8323 85.5943L12.4911 86.7117C10.3497 86.8676 8.23382 86.1658 6.60966 84.762C4.98568 83.3581 3.98617 81.3664 3.83073 79.2253L2.71642 63.8858L2.71928 63.8846L1.07755 41.3046L0.0210836 26.7472C-0.134362 24.6059 0.566538 22.49 1.97081 20.8657C3.37513 19.2413 5.36792 18.2416 7.50938 18.0856L23.658 16.9096L23.2178 10.8542C23.0235 8.17773 23.9006 5.53325 25.6559 3.50281C27.4113 1.47237 29.9015 0.221765 32.5783 0.0268373Z" />
  </defs>
  <use href="#community-puzzle" fill="#DCECDF" opacity="0.7" />
  <use href="#community-puzzle" fill="none" stroke="#90BB98" stroke-width="4" stroke-linejoin="round" opacity="0.7" />
</svg>
