<svg width="85" height="85" viewBox="0 0 85 85" fill="none" xmlns="http://www.w3.org/2000/svg">
<path opacity="0.7" d="M23.4766 6.07227C23.4768 12.1433 28.3333 16.9997 34.4043 17C40.4755 17 45.3328 12.1435 45.333 6.07227V0H60.7139C62.8608 0 64.9203 0.853016 66.4385 2.37109C67.9566 3.88924 68.8096 5.94872 68.8096 8.0957V24.2861H74.8809C77.5645 24.2862 80.1385 25.3523 82.0361 27.25C83.9337 29.1477 85 31.7216 85 34.4053C84.9999 37.0889 83.9338 39.6629 82.0361 41.5605C80.1385 43.4582 77.5645 44.5244 74.8809 44.5244H68.8096V60.7148C68.8095 62.8616 67.9564 64.9204 66.4385 66.4385C64.9203 67.9566 62.8608 68.8096 60.7139 68.8096H44.5234V74.8809C44.5234 77.5646 43.4572 80.1385 41.5596 82.0361C39.6619 83.9337 37.0879 85 34.4043 85C31.7208 84.9999 29.1476 83.9336 27.25 82.0361C25.3523 80.1385 24.2861 77.5646 24.2861 74.8809V68.8096H8.0957C5.94872 68.8096 3.88924 67.9566 2.37109 66.4385C0.853119 64.9204 0.000115661 62.8616 0 60.7148V45.334H0.0517578V23.4766H0V8.0957C0 5.94872 0.85295 3.88924 2.37109 2.37109C3.88923 0.853027 5.94878 0 8.0957 0H23.4766V6.07227Z" fill="#FADE9E"/>
</svg>
