<svg width="93" height="93" viewBox="0 0 93 93" fill="none" xmlns="http://www.w3.org/2000/svg">
<g opacity="0.7">
<mask id="path-1-outside-1_3291_3109" maskUnits="userSpaceOnUse" x="0" y="0" width="93" height="93" fill="black">
<rect fill="white" width="93" height="93"/>
<path d="M27.4766 10.0723C27.4768 16.1433 32.3333 20.9997 38.4043 21C44.4755 21 49.3328 16.1435 49.333 10.0723V4H64.7139C66.8608 4 68.9203 4.85302 70.4385 6.37109C71.9566 7.88924 72.8096 9.94872 72.8096 12.0957V28.2861H78.8809C81.5645 28.2862 84.1385 29.3523 86.0361 31.25C87.9337 33.1477 89 35.7216 89 38.4053C88.9999 41.0889 87.9338 43.6629 86.0361 45.5605C84.1385 47.4582 81.5645 48.5244 78.8809 48.5244H72.8096V64.7148C72.8095 66.8616 71.9564 68.9204 70.4385 70.4385C68.9203 71.9566 66.8608 72.8096 64.7139 72.8096H48.5234V78.8809C48.5234 81.5646 47.4572 84.1385 45.5596 86.0361C43.6619 87.9337 41.0879 89 38.4043 89C35.7208 88.9999 33.1476 87.9336 31.25 86.0361C29.3523 84.1385 28.2861 81.5646 28.2861 78.8809V72.8096H12.0957C9.94872 72.8096 7.88924 71.9566 6.37109 70.4385C4.85312 68.9204 4.00012 66.8616 4 64.7148V49.334H4.05176V27.4766H4V12.0957C4 9.94872 4.85295 7.88924 6.37109 6.37109C7.88923 4.85303 9.94878 4 12.0957 4H27.4766V10.0723Z"/>
</mask>
<path d="M27.4766 10.0723C27.4768 16.1433 32.3333 20.9997 38.4043 21C44.4755 21 49.3328 16.1435 49.333 10.0723V4H64.7139C66.8608 4 68.9203 4.85302 70.4385 6.37109C71.9566 7.88924 72.8096 9.94872 72.8096 12.0957V28.2861H78.8809C81.5645 28.2862 84.1385 29.3523 86.0361 31.25C87.9337 33.1477 89 35.7216 89 38.4053C88.9999 41.0889 87.9338 43.6629 86.0361 45.5605C84.1385 47.4582 81.5645 48.5244 78.8809 48.5244H72.8096V64.7148C72.8095 66.8616 71.9564 68.9204 70.4385 70.4385C68.9203 71.9566 66.8608 72.8096 64.7139 72.8096H48.5234V78.8809C48.5234 81.5646 47.4572 84.1385 45.5596 86.0361C43.6619 87.9337 41.0879 89 38.4043 89C35.7208 88.9999 33.1476 87.9336 31.25 86.0361C29.3523 84.1385 28.2861 81.5646 28.2861 78.8809V72.8096H12.0957C9.94872 72.8096 7.88924 71.9566 6.37109 70.4385C4.85312 68.9204 4.00012 66.8616 4 64.7148V49.334H4.05176V27.4766H4V12.0957C4 9.94872 4.85295 7.88924 6.37109 6.37109C7.88923 4.85303 9.94878 4 12.0957 4H27.4766V10.0723Z" fill="#FADE9E"/>
<path d="M27.4766 10.0723H23.4766V10.0724L27.4766 10.0723ZM38.4043 21L38.4041 25H38.4043V21ZM49.333 10.0723L53.333 10.0724V10.0723H49.333ZM49.333 4V0H45.333V4H49.333ZM70.4385 6.37109L73.2669 3.54267L73.2669 3.54262L70.4385 6.37109ZM72.8096 28.2861H68.8096V32.2861H72.8096V28.2861ZM78.8809 28.2861L78.8809 24.2861H78.8809V28.2861ZM86.0361 31.25L88.8646 28.4216L88.8646 28.4216L86.0361 31.25ZM89 38.4053L93 38.4054V38.4053H89ZM86.0361 45.5605L88.8645 48.389L88.8646 48.389L86.0361 45.5605ZM78.8809 48.5244V52.5244H78.8809L78.8809 48.5244ZM72.8096 48.5244V44.5244H68.8096V48.5244H72.8096ZM72.8096 64.7148L76.8096 64.7151V64.7148H72.8096ZM70.4385 70.4385L73.2669 73.2669L73.267 73.2668L70.4385 70.4385ZM48.5234 72.8096V68.8096H44.5234V72.8096H48.5234ZM45.5596 86.0361L48.3879 88.8646L48.388 88.8646L45.5596 86.0361ZM38.4043 89L38.4041 93H38.4043V89ZM31.25 86.0361L28.4216 88.8646L28.4216 88.8646L31.25 86.0361ZM28.2861 72.8096H32.2861V68.8096H28.2861V72.8096ZM6.37109 70.4385L3.54262 73.2669L3.54267 73.2669L6.37109 70.4385ZM4 64.7148H0V64.7151L4 64.7148ZM4 49.334V45.334H0V49.334H4ZM4.05176 49.334V53.334H8.05176V49.334H4.05176ZM4.05176 27.4766H8.05176V23.4766H4.05176V27.4766ZM4 27.4766H0V31.4766H4V27.4766ZM4 12.0957H0H4ZM6.37109 6.37109L3.54273 3.5426L3.54267 3.54267L6.37109 6.37109ZM27.4766 4H31.4766V0H27.4766V4ZM27.4766 10.0723L23.4766 10.0724C23.4769 18.3525 30.1241 24.9997 38.4041 25L38.4043 21L38.4045 17C34.5424 16.9998 31.4767 13.9341 31.4766 10.0721L27.4766 10.0723ZM38.4043 21V25C46.6844 25 53.3327 18.3529 53.333 10.0724L49.333 10.0723L45.333 10.0721C45.3329 13.934 42.2667 17 38.4043 17V21ZM49.333 10.0723H53.333V4H49.333H45.333V10.0723H49.333ZM49.333 4V8H64.7139V4V0H49.333V4ZM64.7139 4V8C65.8 8 66.8422 8.43166 67.6101 9.19957L70.4385 6.37109L73.2669 3.54262C70.9985 1.27437 67.9216 0 64.7139 0V4ZM70.4385 6.37109L67.6101 9.19952C68.3779 9.96741 68.8096 11.0094 68.8096 12.0957H72.8096H76.8096C76.8096 8.888 75.5353 5.81106 73.2669 3.54267L70.4385 6.37109ZM72.8096 12.0957H68.8096V28.2861H72.8096H76.8096V12.0957H72.8096ZM72.8096 28.2861V32.2861H78.8809V28.2861V24.2861H72.8096V28.2861ZM78.8809 28.2861L78.8808 32.2861C80.5036 32.2861 82.0602 32.9309 83.2077 34.0784L86.0361 31.25L88.8646 28.4216C86.2168 25.7738 82.6255 24.2862 78.8809 24.2861L78.8809 28.2861ZM86.0361 31.25L83.2076 34.0784C84.3552 35.226 85 36.7826 85 38.4053H89H93C93 34.6606 91.5122 31.0693 88.8646 28.4216L86.0361 31.25ZM89 38.4053L85 38.4052C85 40.028 84.3552 41.5847 83.2077 42.7321L86.0361 45.5605L88.8646 48.389C91.5123 45.7412 92.9999 42.1498 93 38.4054L89 38.4053ZM86.0361 45.5605L83.2077 42.7321C82.0602 43.8796 80.5036 44.5244 78.8808 44.5244L78.8809 48.5244L78.8809 52.5244C82.6255 52.5244 86.2168 51.0367 88.8645 48.389L86.0361 45.5605ZM78.8809 48.5244V44.5244H72.8096V48.5244V52.5244H78.8809V48.5244ZM72.8096 48.5244H68.8096V64.7148H72.8096H76.8096V48.5244H72.8096ZM72.8096 64.7148L68.8096 64.7146C68.8095 65.8004 68.3781 66.842 67.61 67.6101L70.4385 70.4385L73.267 73.2668C75.5348 70.9989 76.8094 67.9228 76.8096 64.7151L72.8096 64.7148ZM70.4385 70.4385L67.61 67.6101C66.8422 68.3779 65.8001 68.8096 64.7139 68.8096V72.8096V76.8096C67.9216 76.8096 70.9985 75.5353 73.2669 73.2669L70.4385 70.4385ZM64.7139 72.8096V68.8096H48.5234V72.8096V76.8096H64.7139V72.8096ZM48.5234 72.8096H44.5234V78.8809H48.5234H52.5234V72.8096H48.5234ZM48.5234 78.8809H44.5234C44.5234 80.5037 43.8787 82.0601 42.7311 83.2077L45.5596 86.0361L48.388 88.8646C51.0358 86.2168 52.5234 82.6255 52.5234 78.8809H48.5234ZM45.5596 86.0361L42.7312 83.2076C41.5836 84.3552 40.027 85 38.4043 85V89V93C42.1489 93 45.7402 91.5122 48.3879 88.8646L45.5596 86.0361ZM38.4043 89L38.4045 85C36.7822 84.9999 35.2261 84.3553 34.0784 83.2076L31.25 86.0361L28.4216 88.8646C31.069 91.5119 34.6595 92.9998 38.4041 93L38.4043 89ZM31.25 86.0361L34.0784 83.2077C32.9309 82.0601 32.2861 80.5037 32.2861 78.8809H28.2861H24.2861C24.2861 82.6255 25.7738 86.2168 28.4216 88.8646L31.25 86.0361ZM28.2861 78.8809H32.2861V72.8096H28.2861H24.2861V78.8809H28.2861ZM28.2861 72.8096V68.8096H12.0957V72.8096V76.8096H28.2861V72.8096ZM12.0957 72.8096V68.8096C11.0094 68.8096 9.96741 68.3779 9.19952 67.6101L6.37109 70.4385L3.54267 73.2669C5.81106 75.5353 8.88801 76.8096 12.0957 76.8096V72.8096ZM6.37109 70.4385L9.19957 67.6101C8.43151 66.842 8.00006 65.8004 8 64.7146L4 64.7148L0 64.7151C0.000172853 67.9228 1.27473 70.9989 3.54262 73.2669L6.37109 70.4385ZM4 64.7148H8V49.334H4H0V64.7148H4ZM4 49.334V53.334H4.05176V49.334V45.334H4V49.334ZM4.05176 49.334H8.05176V27.4766H4.05176H0.0517578V49.334H4.05176ZM4.05176 27.4766V23.4766H4V27.4766V31.4766H4.05176V27.4766ZM4 27.4766H8V12.0957H4H0V27.4766H4ZM4 12.0957H8C8 11.0094 8.43163 9.96741 9.19952 9.19952L6.37109 6.37109L3.54267 3.54267C1.27427 5.81106 0 8.88801 0 12.0957H4ZM6.37109 6.37109L9.19946 9.19958C9.96741 8.43166 11.0096 8 12.0957 8V4V0C8.888 0 5.81104 1.27439 3.54273 3.5426L6.37109 6.37109ZM12.0957 4V8H27.4766V4V0H12.0957V4ZM27.4766 4H23.4766V10.0723H27.4766H31.4766V4H27.4766Z" fill="#AA8426" mask="url(#path-1-outside-1_3291_3109)"/>
</g>
</svg>
