<svg width="98" height="98" viewBox="0 0 98 98" fill="none" xmlns="http://www.w3.org/2000/svg">
<g opacity="0.7">
<mask id="path-1-outside-1_3291_3094" maskUnits="userSpaceOnUse" x="-3.04872" y="-8.14345" width="117.361" height="116.703" fill="black">
<rect fill="white" x="-3.04872" y="-8.14345" width="117.361" height="116.703"/>
<path d="M26.1834 21.2114C27.9849 27.0093 34.0647 30.2066 39.8627 28.4052C45.6607 26.6037 48.858 20.5239 47.0565 14.726L45.2551 8.92809L59.9433 4.36434C61.9935 3.72734 64.2134 3.93088 66.1136 4.93007C68.0138 5.92933 69.4394 7.64318 70.0765 9.69333L74.8802 25.1537L80.6781 23.3523C83.2407 22.556 86.0154 22.8107 88.3905 24.0596C90.7657 25.3086 92.5476 27.4506 93.344 30.0132C94.1403 32.5759 93.8858 35.3504 92.6367 37.7256C91.3875 40.1008 89.2459 41.8828 86.6831 42.6791L80.8852 44.4806L85.6892 59.9419C86.3261 61.992 86.1223 64.2112 85.1231 66.1113C84.1239 68.0114 82.4109 69.4368 80.3608 70.0739L64.8986 74.8781L66.7 80.676C67.4963 83.2388 67.2418 86.0133 65.9927 88.3885C64.7435 90.7637 62.602 92.5456 60.0391 93.342C57.4763 94.1382 54.7019 93.8837 52.3266 92.6347C49.9515 91.3855 48.1694 89.2437 47.3732 86.681L45.5717 80.8832L30.1104 85.6871C28.0601 86.3242 25.8403 86.1207 23.9401 85.1214C22.0401 84.1221 20.6144 82.4091 19.9775 80.3591L15.607 66.2929L15.6023 66.2944L8.57356 43.6727L8.57822 43.6712L4.36451 30.1096C3.72776 28.0596 3.9314 25.8401 4.93053 23.9402C5.92989 22.0401 7.64355 20.6143 9.69379 19.9773L24.382 15.4135L26.1834 21.2114Z"/>
</mask>
<path d="M26.1834 21.2114C27.9849 27.0093 34.0647 30.2066 39.8627 28.4052C45.6607 26.6037 48.858 20.5239 47.0565 14.726L45.2551 8.92809L59.9433 4.36434C61.9935 3.72734 64.2134 3.93088 66.1136 4.93007C68.0138 5.92933 69.4394 7.64318 70.0765 9.69333L74.8802 25.1537L80.6781 23.3523C83.2407 22.556 86.0154 22.8107 88.3905 24.0596C90.7657 25.3086 92.5476 27.4506 93.344 30.0132C94.1403 32.5759 93.8858 35.3504 92.6367 37.7256C91.3875 40.1008 89.2459 41.8828 86.6831 42.6791L80.8852 44.4806L85.6892 59.9419C86.3261 61.992 86.1223 64.2112 85.1231 66.1113C84.1239 68.0114 82.4109 69.4368 80.3608 70.0739L64.8986 74.8781L66.7 80.676C67.4963 83.2388 67.2418 86.0133 65.9927 88.3885C64.7435 90.7637 62.602 92.5456 60.0391 93.342C57.4763 94.1382 54.7019 93.8837 52.3266 92.6347C49.9515 91.3855 48.1694 89.2437 47.3732 86.681L45.5717 80.8832L30.1104 85.6871C28.0601 86.3242 25.8403 86.1207 23.9401 85.1214C22.0401 84.1221 20.6144 82.4091 19.9775 80.3591L15.607 66.2929L15.6023 66.2944L8.57356 43.6727L8.57822 43.6712L4.36451 30.1096C3.72776 28.0596 3.9314 25.8401 4.93053 23.9402C5.92989 22.0401 7.64355 20.6143 9.69379 19.9773L24.382 15.4135L26.1834 21.2114Z" fill="#5D6DC7"/>
<path d="M26.1834 21.2114L22.3636 22.3983L22.3636 22.3983L26.1834 21.2114ZM39.8627 28.4052L41.0495 32.2251L41.0496 32.2251L39.8627 28.4052ZM47.0565 14.726L43.2367 15.9128L43.2367 15.9128L47.0565 14.726ZM45.2551 8.92809L44.0682 5.10823L40.2483 6.29509L41.4352 10.115L45.2551 8.92809ZM59.9433 4.36434L58.7564 0.544465L58.7564 0.544478L59.9433 4.36434ZM66.1136 4.93007L67.9754 1.38976L67.9753 1.3897L66.1136 4.93007ZM70.0765 9.69333L73.8964 8.50647L73.8963 8.50633L70.0765 9.69333ZM74.8802 25.1537L71.0603 26.3406L72.2472 30.1604L76.067 28.9736L74.8802 25.1537ZM80.6781 23.3523L79.4912 19.5324L79.4912 19.5324L80.6781 23.3523ZM88.3905 24.0596L90.2523 20.5193L90.2521 20.5191L88.3905 24.0596ZM93.344 30.0132L97.1639 28.8263L97.1638 28.8261L93.344 30.0132ZM92.6367 37.7256L96.1769 39.5876L96.177 39.5874L92.6367 37.7256ZM86.6831 42.6791L87.8699 46.499L87.87 46.499L86.6831 42.6791ZM80.8852 44.4806L79.6983 40.6607L75.8785 41.8476L77.0653 45.6674L80.8852 44.4806ZM85.6892 59.9419L89.509 58.755L89.509 58.755L85.6892 59.9419ZM85.1231 66.1113L88.6634 67.9731L88.6635 67.973L85.1231 66.1113ZM80.3608 70.0739L81.5477 73.8938L81.5479 73.8937L80.3608 70.0739ZM64.8986 74.8781L63.7117 71.0583L59.8918 72.2452L61.0787 76.065L64.8986 74.8781ZM66.7 80.676L62.8802 81.8629L62.8802 81.8629L66.7 80.676ZM65.9927 88.3885L69.533 90.2503L69.533 90.2502L65.9927 88.3885ZM60.0391 93.342L61.2258 97.1619L61.226 97.1618L60.0391 93.342ZM52.3266 92.6347L50.4647 96.1749L50.4649 96.175L52.3266 92.6347ZM47.3732 86.681L43.5533 87.8679L43.5533 87.8679L47.3732 86.681ZM45.5717 80.8832L49.3916 79.6963L48.2047 75.8764L44.3848 77.0633L45.5717 80.8832ZM30.1104 85.6871L31.2973 89.507L31.2973 89.507L30.1104 85.6871ZM23.9401 85.1214L22.078 88.6616L22.0783 88.6617L23.9401 85.1214ZM19.9775 80.3591L16.1576 81.5459L16.1576 81.546L19.9775 80.3591ZM15.607 66.2929L19.4268 65.106L18.24 61.2862L14.4201 62.473L15.607 66.2929ZM15.6023 66.2944L11.7824 67.4812L12.9693 71.3011L16.7892 70.1142L15.6023 66.2944ZM8.57356 43.6727L7.38669 39.8528L3.56683 41.0397L4.7537 44.8595L8.57356 43.6727ZM8.57822 43.6712L9.76509 47.4911L13.5849 46.3042L12.3981 42.4844L8.57822 43.6712ZM4.36451 30.1096L0.544536 31.2961L0.544643 31.2965L4.36451 30.1096ZM4.93053 23.9402L1.39032 22.0782L1.3902 22.0784L4.93053 23.9402ZM9.69379 19.9773L10.8806 23.7971L10.8807 23.7971L9.69379 19.9773ZM24.382 15.4135L28.2018 14.2267L27.015 10.4068L23.1951 11.5937L24.382 15.4135ZM26.1834 21.2114L22.3636 22.3983C24.8205 30.3059 33.1419 34.6819 41.0495 32.2251L39.8627 28.4052L38.6759 24.5853C34.9875 25.7313 31.1492 23.7127 30.0033 20.0245L26.1834 21.2114ZM39.8627 28.4052L41.0496 32.2251C48.9572 29.7681 53.3333 21.4467 50.8764 13.5391L47.0565 14.726L43.2367 15.9128C44.3826 19.6011 42.3642 23.4393 38.6758 24.5854L39.8627 28.4052ZM47.0565 14.726L50.8764 13.5391L49.0749 7.74122L45.2551 8.92809L41.4352 10.115L43.2367 15.9128L47.0565 14.726ZM45.2551 8.92809L46.4419 12.748L61.1301 8.1842L59.9433 4.36434L58.7564 0.544478L44.0682 5.10823L45.2551 8.92809ZM59.9433 4.36434L61.1301 8.18422C62.1673 7.86196 63.2907 7.96496 64.2519 8.47044L66.1136 4.93007L67.9753 1.3897C65.1362 -0.103207 61.8197 -0.407273 58.7564 0.544465L59.9433 4.36434ZM66.1136 4.93007L64.2518 8.47038C65.2128 8.97572 65.9343 9.84288 66.2567 10.8803L70.0765 9.69333L73.8963 8.50633C72.9446 5.44347 70.8148 2.88294 67.9754 1.38976L66.1136 4.93007ZM70.0765 9.69333L66.2566 10.8802L71.0603 26.3406L74.8802 25.1537L78.7 23.9668L73.8964 8.50647L70.0765 9.69333ZM74.8802 25.1537L76.067 28.9736L81.8649 27.1721L80.6781 23.3523L79.4912 19.5324L73.6933 21.3338L74.8802 25.1537ZM80.6781 23.3523L81.8649 27.1721C83.4142 26.6907 85.0924 26.8446 86.529 27.6L88.3905 24.0596L90.2521 20.5191C86.9383 18.7768 83.0672 18.4213 79.4912 19.5324L80.6781 23.3523ZM88.3905 24.0596L86.5287 27.5999C87.9648 28.3551 89.0426 29.6504 89.5242 31.2003L93.344 30.0132L97.1638 28.8261C96.0527 25.2507 93.5666 22.2622 90.2523 20.5193L88.3905 24.0596ZM93.344 30.0132L89.5241 31.2C90.0056 32.7496 89.8517 34.4275 89.0964 35.8639L92.6367 37.7256L96.177 39.5874C97.9198 36.2733 98.2749 32.4023 97.1639 28.8263L93.344 30.0132ZM92.6367 37.7256L89.0965 35.8637C88.341 37.3002 87.0458 38.3778 85.4962 38.8593L86.6831 42.6791L87.87 46.499C91.446 45.3879 94.434 42.9015 96.1769 39.5876L92.6367 37.7256ZM86.6831 42.6791L85.4962 38.8593L79.6983 40.6607L80.8852 44.4806L82.0721 48.3004L87.8699 46.499L86.6831 42.6791ZM80.8852 44.4806L77.0653 45.6674L81.8693 61.1287L85.6892 59.9419L89.509 58.755L84.7051 43.2937L80.8852 44.4806ZM85.6892 59.9419L81.8693 61.1287C82.1914 62.1653 82.0885 63.288 81.5828 64.2496L85.1231 66.1113L88.6635 67.973C90.1561 65.1344 90.4609 61.8187 89.509 58.755L85.6892 59.9419ZM85.1231 66.1113L81.5829 64.2494C81.0773 65.2108 80.2107 65.9318 79.1737 66.2541L80.3608 70.0739L81.5479 73.8937C84.6111 72.9417 87.1705 70.8119 88.6634 67.9731L85.1231 66.1113ZM80.3608 70.0739L79.1739 66.254L63.7117 71.0583L64.8986 74.8781L66.0854 78.698L81.5477 73.8938L80.3608 70.0739ZM64.8986 74.8781L61.0787 76.065L62.8802 81.8629L66.7 80.676L70.5199 79.4892L68.7184 73.6913L64.8986 74.8781ZM66.7 80.676L62.8802 81.8629C63.3616 83.4125 63.2078 85.0903 62.4524 86.5267L65.9927 88.3885L69.533 90.2502C71.2758 86.9362 71.631 83.0651 70.5199 79.4892L66.7 80.676ZM65.9927 88.3885L62.4524 86.5266C61.697 87.9631 60.4019 89.0406 58.8522 89.5221L60.0391 93.342L61.226 97.1618C64.802 96.0507 67.7901 93.5644 69.533 90.2503L65.9927 88.3885ZM60.0391 93.342L58.8524 89.5221C57.3025 90.0036 55.6247 89.8497 54.1884 89.0944L52.3266 92.6347L50.4649 96.175C53.779 97.9178 57.65 98.2728 61.2258 97.1619L60.0391 93.342ZM52.3266 92.6347L54.1886 89.0944C52.7522 88.339 51.6744 87.0436 51.193 85.4942L47.3732 86.681L43.5533 87.8679C44.6644 91.4438 47.1509 94.432 50.4647 96.1749L52.3266 92.6347ZM47.3732 86.681L51.193 85.4942L49.3916 79.6963L45.5717 80.8832L41.7518 82.07L43.5533 87.8679L47.3732 86.681ZM45.5717 80.8832L44.3848 77.0633L28.9235 81.8673L30.1104 85.6871L31.2973 89.507L46.7586 84.703L45.5717 80.8832ZM30.1104 85.6871L28.9236 81.8673C27.8862 82.1896 26.763 82.0866 25.8018 81.5811L23.9401 85.1214L22.0783 88.6617C24.9176 90.1548 28.234 90.4588 31.2973 89.507L30.1104 85.6871ZM23.9401 85.1214L25.8021 81.5812C24.8405 81.0754 24.1194 80.2086 23.7973 79.1721L19.9775 80.3591L16.1576 81.546C17.1095 84.6095 19.2398 87.1687 22.078 88.6616L23.9401 85.1214ZM19.9775 80.3591L23.7973 79.1722L19.4268 65.106L15.607 66.2929L11.7871 67.4798L16.1576 81.5459L19.9775 80.3591ZM15.607 66.2929L14.4201 62.473L14.4154 62.4745L15.6023 66.2944L16.7892 70.1142L16.7938 70.1128L15.607 66.2929ZM15.6023 66.2944L19.4222 65.1075L12.3934 42.4858L8.57356 43.6727L4.7537 44.8595L11.7824 67.4812L15.6023 66.2944ZM8.57356 43.6727L9.76042 47.4925L9.76509 47.4911L8.57822 43.6712L7.39136 39.8514L7.38669 39.8528L8.57356 43.6727ZM8.57822 43.6712L12.3981 42.4844L8.18437 28.9227L4.36451 30.1096L0.544643 31.2965L4.75836 44.8581L8.57822 43.6712ZM4.36451 30.1096L8.18448 28.9231C7.86238 27.8861 7.96539 26.7631 8.47085 25.8019L4.93053 23.9402L1.3902 22.0784C-0.102594 24.9172 -0.40687 28.2331 0.544536 31.2961L4.36451 30.1096ZM4.93053 23.9402L8.47074 25.8021C8.97632 24.8409 9.84349 24.1194 10.8806 23.7971L9.69379 19.9773L8.50693 16.1574C5.44361 17.1092 2.88345 19.2393 1.39032 22.0782L4.93053 23.9402ZM9.69379 19.9773L10.8807 23.7971L25.5688 19.2334L24.382 15.4135L23.1951 11.5937L8.50693 16.1574L9.69379 19.9773ZM24.382 15.4135L20.5621 16.6004L22.3636 22.3983L26.1834 21.2114L30.0033 20.0245L28.2018 14.2267L24.382 15.4135Z" fill="#0A1C81" mask="url(#path-1-outside-1_3291_3094)"/>
</g>
</svg>
