<svg width="98" height="98" viewBox="0 0 98 98" fill="none" xmlns="http://www.w3.org/2000/svg">
<g opacity="0.7">
<mask id="path-1-outside-1_3291_3074" maskUnits="userSpaceOnUse" x="-3.25975" y="-11.6497" width="119.001" height="118.378" fill="black">
<rect fill="white" x="-3.25975" y="-11.6497" width="119.001" height="118.378"/>
<path d="M25.9989 75.7095C27.96 69.9636 34.1264 66.9357 39.8728 68.8971C45.6192 70.8584 48.6476 77.0244 46.6865 82.7703L44.7254 88.5162L59.2827 93.4847C61.3148 94.1782 63.5391 94.0361 65.4664 93.0898C67.3935 92.1435 68.8657 90.4706 69.5592 88.4389L74.7888 73.1163L80.5356 75.0777C83.0755 75.9445 85.8558 75.7668 88.2647 74.5839C90.6737 73.401 92.5141 71.3094 93.3809 68.7696C94.2477 66.2297 94.0703 63.4495 92.8871 61.0405C91.704 58.6316 89.6119 56.7909 87.0718 55.924L81.326 53.9629L86.5557 38.6403C87.2491 36.6085 87.106 34.3844 86.1596 32.4573C85.213 30.5302 83.5397 29.0578 81.5077 28.3642L66.1842 23.1342L68.1456 17.3875C69.0123 14.8479 68.8344 12.0681 67.6515 9.6593C66.4684 7.25031 64.3763 5.40973 61.8363 4.54277C59.2964 3.67594 56.5164 3.8529 54.1075 5.03561C51.6985 6.21849 49.8582 8.31021 48.9913 10.85L47.0302 16.5958L31.7058 11.3655C29.6738 10.6721 27.4493 10.8141 25.5222 11.7604C23.595 12.7067 22.1225 14.3804 21.4291 16.4123L16.4612 30.9677L16.4618 30.9689L4.43379 66.2102C3.74032 68.2421 3.88216 70.4666 4.82868 72.3938C5.77521 74.3208 7.44861 75.7933 9.48053 76.4869L24.0378 81.4554L25.9989 75.7095Z"/>
</mask>
<path d="M25.9989 75.7095C27.96 69.9636 34.1264 66.9357 39.8728 68.8971C45.6192 70.8584 48.6476 77.0244 46.6865 82.7703L44.7254 88.5162L59.2827 93.4847C61.3148 94.1782 63.5391 94.0361 65.4664 93.0898C67.3935 92.1435 68.8657 90.4706 69.5592 88.4389L74.7888 73.1163L80.5356 75.0777C83.0755 75.9445 85.8558 75.7668 88.2647 74.5839C90.6737 73.401 92.5141 71.3094 93.3809 68.7696C94.2477 66.2297 94.0703 63.4495 92.8871 61.0405C91.704 58.6316 89.6119 56.7909 87.0718 55.924L81.326 53.9629L86.5557 38.6403C87.2491 36.6085 87.106 34.3844 86.1596 32.4573C85.213 30.5302 83.5397 29.0578 81.5077 28.3642L66.1842 23.1342L68.1456 17.3875C69.0123 14.8479 68.8344 12.0681 67.6515 9.6593C66.4684 7.25031 64.3763 5.40973 61.8363 4.54277C59.2964 3.67594 56.5164 3.8529 54.1075 5.03561C51.6985 6.21849 49.8582 8.31021 48.9913 10.85L47.0302 16.5958L31.7058 11.3655C29.6738 10.6721 27.4493 10.8141 25.5222 11.7604C23.595 12.7067 22.1225 14.3804 21.4291 16.4123L16.4612 30.9677L16.4618 30.9689L4.43379 66.2102C3.74032 68.2421 3.88216 70.4666 4.82868 72.3938C5.77521 74.3208 7.44861 75.7933 9.48053 76.4869L24.0378 81.4554L25.9989 75.7095Z" fill="#82D3CA"/>
<path d="M25.9989 75.7095L29.7845 77.0015L29.7845 77.0016L25.9989 75.7095ZM39.8728 68.8971L41.1649 65.1115L41.1649 65.1115L39.8728 68.8971ZM46.6865 82.7703L50.4721 84.0623L50.4721 84.0624L46.6865 82.7703ZM44.7254 88.5162L43.4334 92.3018L39.6478 91.0097L40.9399 87.2241L44.7254 88.5162ZM59.2827 93.4847L60.5748 89.6991L60.5748 89.6991L59.2827 93.4847ZM65.4664 93.0898L67.2294 96.6803L67.2294 96.6803L65.4664 93.0898ZM69.5592 88.4389L73.3447 89.7309L73.3447 89.731L69.5592 88.4389ZM74.7888 73.1163L71.0033 71.8243L72.2953 68.0387L76.0809 69.3307L74.7888 73.1163ZM80.5356 75.0777L79.2437 78.8633L79.2436 78.8633L80.5356 75.0777ZM88.2647 74.5839L90.0277 78.1744L90.0277 78.1745L88.2647 74.5839ZM93.3809 68.7696L97.1665 70.0615L97.1665 70.0616L93.3809 68.7696ZM92.8871 61.0405L96.4775 59.2771L96.4775 59.2772L92.8871 61.0405ZM87.0718 55.924L88.3639 52.1384L88.3639 52.1384L87.0718 55.924ZM81.326 53.9629L80.034 57.7485L76.2484 56.4564L77.5404 52.6708L81.326 53.9629ZM86.5557 38.6403L90.3413 39.9322L90.3413 39.9324L86.5557 38.6403ZM86.1596 32.4573L89.7499 30.6939L89.7499 30.694L86.1596 32.4573ZM81.5077 28.3642L82.7997 24.5786L82.7998 24.5786L81.5077 28.3642ZM66.1842 23.1342L64.8922 26.9198L61.1066 25.6278L62.3986 21.8422L66.1842 23.1342ZM68.1456 17.3875L71.9313 18.6793L71.9312 18.6795L68.1456 17.3875ZM67.6515 9.6593L71.2419 7.89595L71.242 7.89612L67.6515 9.6593ZM61.8363 4.54277L63.1283 0.757172L63.1283 0.757202L61.8363 4.54277ZM54.1075 5.03561L52.3445 1.44511L52.3446 1.44504L54.1075 5.03561ZM48.9913 10.85L45.2057 9.55793L45.2057 9.55788L48.9913 10.85ZM47.0302 16.5958L50.8158 17.8879L49.5237 21.6734L45.7382 20.3814L47.0302 16.5958ZM31.7058 11.3655L32.9977 7.57988L32.9978 7.57993L31.7058 11.3655ZM25.5222 11.7604L23.759 8.16995L23.7591 8.1699L25.5222 11.7604ZM21.4291 16.4123L25.2147 17.7043L25.2147 17.7043L21.4291 16.4123ZM16.4612 30.9677L12.8708 32.7309L12.1404 31.2437L12.6756 29.6757L16.4612 30.9677ZM16.4618 30.9689L20.0522 29.2057L20.7826 30.6929L20.2474 32.261L16.4618 30.9689ZM4.43379 66.2102L0.648194 64.9182L0.648208 64.9181L4.43379 66.2102ZM4.82868 72.3938L1.23839 74.1573L1.23833 74.1571L4.82868 72.3938ZM9.48053 76.4869L8.18849 80.2725L8.18842 80.2725L9.48053 76.4869ZM24.0378 81.4554L27.8234 82.7474L26.5314 86.533L22.7458 85.241L24.0378 81.4554ZM25.9989 75.7095L22.2133 74.4175C24.8881 66.5805 33.3281 62.4367 41.1649 65.1115L39.8728 68.8971L38.5807 72.6826C34.9248 71.4348 31.0319 73.3467 29.7845 77.0015L25.9989 75.7095ZM39.8728 68.8971L41.1649 65.1115C49.0016 67.7863 53.1468 76.2254 50.4721 84.0623L46.6865 82.7703L42.9009 81.4783C44.1483 77.8235 42.2367 73.9305 38.5807 72.6826L39.8728 68.8971ZM46.6865 82.7703L50.4721 84.0624L48.511 89.8082L44.7254 88.5162L40.9399 87.2241L42.901 81.4783L46.6865 82.7703ZM44.7254 88.5162L46.0175 84.7306L60.5748 89.6991L59.2827 93.4847L57.9907 97.2703L43.4334 92.3018L44.7254 88.5162ZM59.2827 93.4847L60.5748 89.6991C61.6028 90.05 62.7282 89.9781 63.7033 89.4993L65.4664 93.0898L67.2294 96.6803C64.3501 98.0941 61.0268 98.3065 57.9907 97.2702L59.2827 93.4847ZM65.4664 93.0898L63.7033 89.4993C64.6782 89.0206 65.4228 88.1744 65.7736 87.1467L69.5592 88.4389L73.3447 89.731C72.3085 92.7668 70.1088 95.2664 67.2294 96.6803L65.4664 93.0898ZM69.5592 88.4389L65.7736 87.1468L71.0033 71.8243L74.7888 73.1163L78.5744 74.4083L73.3447 89.7309L69.5592 88.4389ZM74.7888 73.1163L76.0809 69.3307L81.8276 71.2921L80.5356 75.0777L79.2436 78.8633L73.4968 76.9019L74.7888 73.1163ZM80.5356 75.0777L81.8275 71.2921C83.3634 71.8162 85.0447 71.7088 86.5017 70.9934L88.2647 74.5839L90.0277 78.1745C86.6668 79.8247 82.7877 80.0728 79.2437 78.8633L80.5356 75.0777ZM88.2647 74.5839L86.5016 70.9934C87.9583 70.2782 89.0711 69.0135 89.5953 67.4776L93.3809 68.7696L97.1665 70.0616C95.957 73.6054 93.3892 76.5239 90.0277 78.1744L88.2647 74.5839ZM93.3809 68.7696L89.5953 67.4776C90.1195 65.9416 90.0121 64.2603 89.2968 62.8039L92.8871 61.0405L96.4775 59.2772C98.1284 62.6386 98.3759 66.5179 97.1665 70.0615L93.3809 68.7696ZM92.8871 61.0405L89.2968 62.8039C88.5814 61.3472 87.316 60.2339 85.7798 59.7095L87.0718 55.924L88.3639 52.1384C91.9077 53.348 94.8266 55.9159 96.4775 59.2771L92.8871 61.0405ZM87.0718 55.924L85.7798 59.7096L80.034 57.7485L81.326 53.9629L82.618 50.1773L88.3639 52.1384L87.0718 55.924ZM81.326 53.9629L77.5404 52.6708L82.7701 37.3483L86.5557 38.6403L90.3413 39.9324L85.1116 55.2549L81.326 53.9629ZM86.5557 38.6403L82.7701 37.3484C83.1204 36.3218 83.0486 35.1967 82.5692 34.2207L86.1596 32.4573L89.7499 30.694C91.1635 33.5722 91.3777 36.8952 90.3413 39.9322L86.5557 38.6403ZM86.1596 32.4573L82.5692 34.2207C82.0903 33.2456 81.2437 32.5007 80.2156 32.1498L81.5077 28.3642L82.7998 24.5786C85.8358 25.6149 88.3357 27.8147 89.7499 30.6939L86.1596 32.4573ZM81.5077 28.3642L80.2157 32.1498L64.8922 26.9198L66.1842 23.1342L67.4763 19.3486L82.7997 24.5786L81.5077 28.3642ZM66.1842 23.1342L62.3986 21.8422L64.36 16.0954L68.1456 17.3875L71.9312 18.6795L69.9698 24.4263L66.1842 23.1342ZM68.1456 17.3875L64.36 16.0956C64.8839 14.5602 64.7765 12.8793 64.0611 11.4225L67.6515 9.6593L71.242 7.89612C72.8924 11.2568 73.1406 15.1355 71.9313 18.6793L68.1456 17.3875ZM67.6515 9.6593L64.0612 11.4227C63.3458 9.96599 62.0805 8.85271 60.5442 8.32834L61.8363 4.54277L63.1283 0.757202C66.6722 1.96676 69.591 4.53463 71.2419 7.89595L67.6515 9.6593ZM61.8363 4.54277L60.5443 8.32837C59.0077 7.80396 57.3266 7.91122 55.8704 8.62618L54.1075 5.03561L52.3446 1.44504C55.7062 -0.205426 59.5851 -0.452086 63.1283 0.757172L61.8363 4.54277ZM54.1075 5.03561L55.8705 8.62611C54.4141 9.34129 53.3011 10.6061 52.7769 12.1421L48.9913 10.85L45.2057 9.55788C46.4152 6.01428 48.983 3.09569 52.3445 1.44511L54.1075 5.03561ZM48.9913 10.85L52.7769 12.142L50.8158 17.8879L47.0302 16.5958L43.2446 15.3038L45.2057 9.55793L48.9913 10.85ZM47.0302 16.5958L45.7382 20.3814L30.4138 15.1511L31.7058 11.3655L32.9978 7.57993L48.3222 12.8102L47.0302 16.5958ZM31.7058 11.3655L30.4139 15.1511C29.3858 14.8003 28.2601 14.8722 27.2852 15.3509L25.5222 11.7604L23.7591 8.1699C26.6385 6.75603 29.9619 6.54387 32.9977 7.57988L31.7058 11.3655ZM25.5222 11.7604L27.2853 15.3508C26.3106 15.8295 25.5655 16.6763 25.2147 17.7043L21.4291 16.4123L17.6435 15.1202C18.6795 12.0846 20.8794 9.58401 23.759 8.16995L25.5222 11.7604ZM21.4291 16.4123L25.2147 17.7043L20.2468 32.2597L16.4612 30.9677L12.6756 29.6757L17.6435 15.1202L21.4291 16.4123ZM16.4612 30.9677L20.0516 29.2045L20.0522 29.2057L16.4618 30.9689L12.8714 32.7321L12.8708 32.7309L16.4612 30.9677ZM16.4618 30.9689L20.2474 32.261L8.21937 67.5022L4.43379 66.2102L0.648208 64.9181L12.6762 29.6769L16.4618 30.9689ZM4.43379 66.2102L8.21939 67.5022C7.86846 68.5304 7.94037 69.6559 8.41902 70.6304L4.82868 72.3938L1.23833 74.1571C-0.176058 71.2773 -0.38782 67.9537 0.648194 64.9182L4.43379 66.2102ZM4.82868 72.3938L8.41896 70.6303C8.8979 71.6054 9.74471 72.3505 10.7726 72.7013L9.48053 76.4869L8.18842 80.2725C5.15251 79.2362 2.65251 77.0363 1.23839 74.1573L4.82868 72.3938ZM9.48053 76.4869L10.7726 72.7013L25.3299 77.6698L24.0378 81.4554L22.7458 85.241L8.18849 80.2725L9.48053 76.4869ZM24.0378 81.4554L20.2523 80.1633L22.2133 74.4175L25.9989 75.7095L29.7845 77.0016L27.8234 82.7474L24.0378 81.4554Z" fill="#00C77B" mask="url(#path-1-outside-1_3291_3074)"/>
</g>
</svg>
