<svg width="98" height="98" viewBox="0 0 98 98" fill="none" xmlns="http://www.w3.org/2000/svg">
<g opacity="0.7">
<mask id="path-1-outside-1_3291_3087" maskUnits="userSpaceOnUse" x="-9.16573" y="-3.47838" width="120.668" height="120.083" fill="black">
<rect fill="white" x="-9.16573" y="-3.47838" width="120.668" height="120.083"/>
<path d="M45.682 15.6003C43.5505 21.2851 46.3931 27.5387 52.0778 29.6704C57.7626 31.8019 64.0161 28.9593 66.1479 23.2746L68.2796 17.5898L82.6812 22.9902C84.6912 23.744 86.3199 25.2648 87.2083 27.219C88.0968 29.1735 88.1723 31.4014 87.4185 33.4117L81.7339 48.5713L87.4187 50.703C89.9315 51.6453 91.9672 53.5473 93.0778 55.9904C94.1884 58.4336 94.283 61.2179 93.3407 63.7308C92.3984 66.2437 90.4964 68.2793 88.0533 69.3899C85.6101 70.5005 82.8258 70.5951 80.3129 69.6528L74.6281 67.5211L68.9436 82.6808C68.1897 84.6911 66.668 86.32 64.7135 87.2085C62.759 88.0969 60.531 88.1724 58.5208 87.4187L43.3621 81.7344L41.2304 87.4192C40.2881 89.9319 38.386 91.9677 35.9429 93.0783C33.4999 94.1888 30.7154 94.2833 28.2026 93.3412C25.6898 92.399 23.6541 90.4968 22.5435 88.0538C21.4329 85.6106 21.3383 82.8262 22.2806 80.3134L24.4122 74.6286L9.25256 68.9441C7.24227 68.1902 5.61337 66.6685 4.72492 64.714C3.83652 62.7595 3.76183 60.5319 4.51564 58.5216L9.68692 44.7308L9.68235 44.7291L17.9995 22.5487L18.0041 22.5505L22.9906 9.25248C23.7444 7.24224 25.2659 5.6142 27.2203 4.72575C29.1748 3.83729 31.4018 3.76143 33.4121 4.51522L47.8137 9.91554L45.682 15.6003Z"/>
</mask>
<path d="M45.682 15.6003C43.5505 21.2851 46.3931 27.5387 52.0778 29.6704C57.7626 31.8019 64.0161 28.9593 66.1479 23.2746L68.2796 17.5898L82.6812 22.9902C84.6912 23.744 86.3199 25.2648 87.2083 27.219C88.0968 29.1735 88.1723 31.4014 87.4185 33.4117L81.7339 48.5713L87.4187 50.703C89.9315 51.6453 91.9672 53.5473 93.0778 55.9904C94.1884 58.4336 94.283 61.2179 93.3407 63.7308C92.3984 66.2437 90.4964 68.2793 88.0533 69.3899C85.6101 70.5005 82.8258 70.5951 80.3129 69.6528L74.6281 67.5211L68.9436 82.6808C68.1897 84.6911 66.668 86.32 64.7135 87.2085C62.759 88.0969 60.531 88.1724 58.5208 87.4187L43.3621 81.7344L41.2304 87.4192C40.2881 89.9319 38.386 91.9677 35.9429 93.0783C33.4999 94.1888 30.7154 94.2833 28.2026 93.3412C25.6898 92.399 23.6541 90.4968 22.5435 88.0538C21.4329 85.6106 21.3383 82.8262 22.2806 80.3134L24.4122 74.6286L9.25256 68.9441C7.24227 68.1902 5.61337 66.6685 4.72492 64.714C3.83652 62.7595 3.76183 60.5319 4.51564 58.5216L9.68692 44.7308L9.68235 44.7291L17.9995 22.5487L18.0041 22.5505L22.9906 9.25248C23.7444 7.24224 25.2659 5.6142 27.2203 4.72575C29.1748 3.83729 31.4018 3.76143 33.4121 4.51522L47.8137 9.91554L45.682 15.6003Z" fill="#A6CCF4"/>
<path d="M45.682 15.6003L41.9367 14.1959L41.9367 14.196L45.682 15.6003ZM52.0778 29.6704L50.6734 33.4157L50.6735 33.4158L52.0778 29.6704ZM66.1479 23.2746L69.8932 24.6791L69.8933 24.679L66.1479 23.2746ZM68.2796 17.5898L69.684 13.8445L65.9387 12.4401L64.5343 16.1854L68.2796 17.5898ZM82.6812 22.9902L84.0859 19.2449L84.0857 19.2448L82.6812 22.9902ZM87.2083 27.219L90.8498 25.5637L90.8497 25.5636L87.2083 27.219ZM87.4185 33.4117L91.1638 34.8161L91.1639 34.8161L87.4185 33.4117ZM81.7339 48.5713L77.9886 47.1669L76.5842 50.9122L80.3295 52.3167L81.7339 48.5713ZM87.4187 50.703L86.0143 54.4483L86.0143 54.4483L87.4187 50.703ZM93.0778 55.9904L96.7192 54.3352L96.7192 54.3352L93.0778 55.9904ZM93.3407 63.7308L97.086 65.1352L97.086 65.1352L93.3407 63.7308ZM88.0533 69.3899L89.7086 73.0313L89.7086 73.0313L88.0533 69.3899ZM80.3129 69.6528L78.9085 73.3982L78.9085 73.3982L80.3129 69.6528ZM74.6281 67.5211L76.0326 63.7758L72.2872 62.3714L70.8828 66.1167L74.6281 67.5211ZM68.9436 82.6808L72.6889 84.0852L72.6889 84.0852L68.9436 82.6808ZM64.7135 87.2085L66.3687 90.8499L66.3688 90.8499L64.7135 87.2085ZM58.5208 87.4187L57.1164 91.164L57.1164 91.164L58.5208 87.4187ZM43.3621 81.7344L44.7665 77.9891L41.0211 76.5847L39.6167 80.33L43.3621 81.7344ZM41.2304 87.4192L44.9757 88.8237L44.9757 88.8236L41.2304 87.4192ZM35.9429 93.0783L37.5982 96.7197L37.5983 96.7197L35.9429 93.0783ZM28.2026 93.3412L26.7982 97.0865L26.7983 97.0866L28.2026 93.3412ZM22.5435 88.0538L18.902 89.709L18.9021 89.7091L22.5435 88.0538ZM22.2806 80.3134L18.5352 78.909L18.5352 78.909L22.2806 80.3134ZM24.4122 74.6286L28.1576 76.033L29.562 72.2877L25.8167 70.8833L24.4122 74.6286ZM9.25256 68.9441L10.657 65.1987L10.657 65.1987L9.25256 68.9441ZM4.72492 64.714L1.08344 66.3692L1.08347 66.3692L4.72492 64.714ZM4.51564 58.5216L8.26098 59.9261L8.26098 59.9261L4.51564 58.5216ZM9.68692 44.7308L13.4323 46.1352L14.8367 42.3899L11.0914 40.9855L9.68692 44.7308ZM9.68235 44.7291L5.93701 43.3247L4.53258 47.07L8.27792 48.4744L9.68235 44.7291ZM17.9995 22.5487L19.404 18.8034L15.6586 17.399L14.2542 21.1443L17.9995 22.5487ZM18.0041 22.5505L16.5997 26.2958L20.345 27.7002L21.7495 23.9549L18.0041 22.5505ZM22.9906 9.25248L19.2453 7.84797L19.2452 7.84805L22.9906 9.25248ZM27.2203 4.72575L25.565 1.08431L25.565 1.08432L27.2203 4.72575ZM33.4121 4.51522L34.8165 0.769874L34.8165 0.769859L33.4121 4.51522ZM47.8137 9.91554L51.5591 11.32L52.9635 7.57463L49.2181 6.1702L47.8137 9.91554ZM45.682 15.6003L41.9367 14.196C39.0296 21.9492 42.9201 30.5084 50.6734 33.4157L52.0778 29.6704L53.4823 25.925C49.8661 24.569 48.0714 20.6211 49.4274 17.0047L45.682 15.6003ZM52.0778 29.6704L50.6735 33.4158C58.4267 36.3229 66.9858 32.4322 69.8932 24.6791L66.1479 23.2746L62.4026 21.8701C61.0465 25.4863 57.0984 27.281 53.4822 25.925L52.0778 29.6704ZM66.1479 23.2746L69.8933 24.679L72.0249 18.9943L68.2796 17.5898L64.5343 16.1854L62.4026 21.8702L66.1479 23.2746ZM68.2796 17.5898L66.8752 21.3352L81.2768 26.7355L82.6812 22.9902L84.0857 19.2448L69.684 13.8445L68.2796 17.5898ZM82.6812 22.9902L81.2766 26.7354C82.2943 27.1171 83.1179 27.8866 83.5669 28.8744L87.2083 27.219L90.8497 25.5636C89.5219 22.6429 87.0882 20.3709 84.0859 19.2449L82.6812 22.9902ZM87.2083 27.219L83.5669 28.8742C84.0163 29.8629 84.0546 30.9901 83.6732 32.0072L87.4185 33.4117L91.1639 34.8161C92.2901 31.8126 92.1773 28.4841 90.8498 25.5637L87.2083 27.219ZM87.4185 33.4117L83.6732 32.0072L77.9886 47.1669L81.7339 48.5713L85.4793 49.9758L91.1638 34.8161L87.4185 33.4117ZM81.7339 48.5713L80.3295 52.3167L86.0143 54.4483L87.4187 50.703L88.8231 46.9577L83.1384 44.826L81.7339 48.5713ZM87.4187 50.703L86.0143 54.4483C87.5337 55.0181 88.7648 56.1683 89.4364 57.6457L93.0778 55.9904L96.7192 54.3352C95.1697 50.9263 92.3294 48.2724 88.8231 46.9577L87.4187 50.703ZM93.0778 55.9904L89.4364 57.6457C90.1079 59.1232 90.1651 60.8069 89.5954 62.3264L93.3407 63.7308L97.086 65.1352C98.4008 61.629 98.2688 57.744 96.7192 54.3352L93.0778 55.9904ZM93.3407 63.7308L89.5954 62.3264C89.0256 63.8458 87.8754 65.0769 86.398 65.7485L88.0533 69.3899L89.7086 73.0313C93.1174 71.4818 95.7713 68.6415 97.086 65.1352L93.3407 63.7308ZM88.0533 69.3899L86.398 65.7485C84.9206 66.4201 83.2368 66.4773 81.7173 65.9075L80.3129 69.6528L78.9085 73.3982C82.4147 74.7129 86.2997 74.5809 89.7086 73.0313L88.0533 69.3899ZM80.3129 69.6528L81.7173 65.9075L76.0326 63.7758L74.6281 67.5211L73.2237 71.2665L78.9085 73.3982L80.3129 69.6528ZM74.6281 67.5211L70.8828 66.1167L65.1982 81.2764L68.9436 82.6808L72.6889 84.0852L78.3735 68.9256L74.6281 67.5211ZM68.9436 82.6808L65.1982 81.2764C64.8168 82.2935 64.0468 83.1176 63.0582 83.567L64.7135 87.2085L66.3688 90.8499C69.2892 89.5224 71.5626 87.0887 72.6889 84.0852L68.9436 82.6808ZM64.7135 87.2085L63.0583 83.567C62.0696 84.0164 60.9422 84.0547 59.9252 83.6733L58.5208 87.4187L57.1164 91.164C60.1198 92.2902 63.4484 92.1773 66.3687 90.8499L64.7135 87.2085ZM58.5208 87.4187L59.9252 83.6733L44.7665 77.9891L43.3621 81.7344L41.9576 85.4798L57.1164 91.164L58.5208 87.4187ZM43.3621 81.7344L39.6167 80.33L37.485 86.0148L41.2304 87.4192L44.9757 88.8236L47.1074 83.1388L43.3621 81.7344ZM41.2304 87.4192L37.4851 86.0147C36.9153 87.5341 35.765 88.7653 34.2876 89.4369L35.9429 93.0783L37.5983 96.7197C41.007 95.1701 43.6609 92.3298 44.9757 88.8237L41.2304 87.4192ZM35.9429 93.0783L34.2876 89.4369C32.8104 90.1084 31.1265 90.1656 29.6069 89.5958L28.2026 93.3412L26.7983 97.0866C30.3043 98.4011 34.1893 98.2693 37.5982 96.7197L35.9429 93.0783ZM28.2026 93.3412L29.607 89.5959C28.0877 89.0261 26.8565 87.8758 26.1849 86.3984L22.5435 88.0538L18.9021 89.7091C20.4516 93.1177 23.2919 95.7718 26.7982 97.0865L28.2026 93.3412ZM22.5435 88.0538L26.1849 86.3985C25.5133 84.9211 25.4562 83.2373 26.0259 81.7178L22.2806 80.3134L18.5352 78.909C17.2205 82.4152 17.3525 86.3002 18.902 89.709L22.5435 88.0538ZM22.2806 80.3134L26.0259 81.7178L28.1576 76.033L24.4122 74.6286L20.6669 73.2242L18.5352 78.909L22.2806 80.3134ZM24.4122 74.6286L25.8167 70.8833L10.657 65.1987L9.25256 68.9441L7.84813 72.6894L23.0078 78.374L24.4122 74.6286ZM9.25256 68.9441L10.657 65.1987C9.63988 64.8173 8.81574 64.0473 8.36636 63.0587L4.72492 64.714L1.08347 66.3692C2.411 69.2897 4.84467 71.5632 7.84814 72.6894L9.25256 68.9441ZM4.72492 64.714L8.36639 63.0588C7.91749 62.0712 7.87919 60.9442 8.26098 59.9261L4.51564 58.5216L0.770301 57.1172C-0.355531 60.1196 -0.244453 63.4477 1.08344 66.3692L4.72492 64.714ZM4.51564 58.5216L8.26098 59.9261L13.4323 46.1352L9.68692 44.7308L5.94158 43.3264L0.770299 57.1172L4.51564 58.5216ZM9.68692 44.7308L11.0914 40.9855L11.0868 40.9838L9.68235 44.7291L8.27792 48.4744L8.2825 48.4762L9.68692 44.7308ZM9.68235 44.7291L13.4277 46.1335L21.7449 23.9532L17.9995 22.5487L14.2542 21.1443L5.93701 43.3247L9.68235 44.7291ZM17.9995 22.5487L16.5951 26.2941L16.5997 26.2958L18.0041 22.5505L19.4085 18.8051L19.404 18.8034L17.9995 22.5487ZM18.0041 22.5505L21.7495 23.9549L26.7359 10.6569L22.9906 9.25248L19.2452 7.84805L14.2588 21.146L18.0041 22.5505ZM22.9906 9.25248L26.7359 10.657C27.1172 9.64031 27.8866 8.81675 28.8756 8.36718L27.2203 4.72575L25.565 1.08432C22.6451 2.41165 20.3717 4.84417 19.2453 7.84797L22.9906 9.25248ZM27.2203 4.72575L28.8756 8.36718C29.8646 7.9176 30.991 7.87936 32.0077 8.26057L33.4121 4.51522L34.8165 0.769859C31.8126 -0.356496 28.485 -0.24302 25.565 1.08431L27.2203 4.72575ZM33.4121 4.51522L32.0076 8.26056L46.4093 13.6609L47.8137 9.91554L49.2181 6.1702L34.8165 0.769874L33.4121 4.51522ZM47.8137 9.91554L44.0684 8.51111L41.9367 14.1959L45.682 15.6003L49.4274 17.0047L51.5591 11.32L47.8137 9.91554Z" fill="#2066AF" mask="url(#path-1-outside-1_3291_3087)"/>
</g>
</svg>
