<svg width="97" height="97" viewBox="0 0 97 97" fill="none" xmlns="http://www.w3.org/2000/svg">
<g opacity="0.7">
<mask id="path-1-outside-1_3291_3102" maskUnits="userSpaceOnUse" x="-1.8876" y="-6.35138" width="107.516" height="107.516" fill="black">
<rect fill="white" x="-1.8876" y="-6.35138" width="107.516" height="107.516"/>
<path d="M51.1523 4.14844C53.7965 4.6068 56.1506 6.09687 57.6963 8.2907C59.242 10.4846 59.853 13.2027 59.3947 15.847L58.3579 21.8291L74.3105 24.594C76.4258 24.9607 78.3086 26.1528 79.5452 27.9077C80.7818 29.6628 81.2705 31.8377 80.9038 33.9531L78.1389 49.9057L84.121 50.9426C86.7653 51.4009 89.1193 52.891 90.665 55.0848C92.2108 57.2787 92.8218 59.9968 92.3634 62.6411C91.9051 65.2854 90.415 67.6394 88.2212 69.1851C86.0274 70.7307 83.309 71.3418 80.6649 70.8835L74.6828 69.8467L71.9179 85.7993C71.5512 87.9147 70.3592 89.7974 68.6042 91.034C66.8491 92.2705 64.6751 92.7593 62.5597 92.3928L47.4048 89.7662L48.4416 83.784C49.4783 77.802 45.5218 72.1865 39.5397 71.1495C33.5576 70.1127 27.9422 74.0692 26.9052 80.0514L25.8684 86.0335L10.7135 83.4069C8.59806 83.0402 6.71451 81.8481 5.47791 80.093C4.2415 78.338 3.75251 76.1638 4.11909 74.0485L13.105 22.2023C13.4717 20.0869 14.6638 18.2033 16.4189 16.9667C18.174 15.7302 20.3489 15.2414 22.4643 15.6081L38.4169 18.373L39.4537 12.3909C39.9121 9.74657 41.4021 7.39257 43.596 5.84684C45.7899 4.30119 48.5081 3.69015 51.1523 4.14844Z"/>
</mask>
<path d="M51.1523 4.14844C53.7965 4.6068 56.1506 6.09687 57.6963 8.2907C59.242 10.4846 59.853 13.2027 59.3947 15.847L58.3579 21.8291L74.3105 24.594C76.4258 24.9607 78.3086 26.1528 79.5452 27.9077C80.7818 29.6628 81.2705 31.8377 80.9038 33.9531L78.1389 49.9057L84.121 50.9426C86.7653 51.4009 89.1193 52.891 90.665 55.0848C92.2108 57.2787 92.8218 59.9968 92.3634 62.6411C91.9051 65.2854 90.415 67.6394 88.2212 69.1851C86.0274 70.7307 83.309 71.3418 80.6649 70.8835L74.6828 69.8467L71.9179 85.7993C71.5512 87.9147 70.3592 89.7974 68.6042 91.034C66.8491 92.2705 64.6751 92.7593 62.5597 92.3928L47.4048 89.7662L48.4416 83.784C49.4783 77.802 45.5218 72.1865 39.5397 71.1495C33.5576 70.1127 27.9422 74.0692 26.9052 80.0514L25.8684 86.0335L10.7135 83.4069C8.59806 83.0402 6.71451 81.8481 5.47791 80.093C4.2415 78.338 3.75251 76.1638 4.11909 74.0485L13.105 22.2023C13.4717 20.0869 14.6638 18.2033 16.4189 16.9667C18.174 15.7302 20.3489 15.2414 22.4643 15.6081L38.4169 18.373L39.4537 12.3909C39.9121 9.74657 41.4021 7.39257 43.596 5.84684C45.7899 4.30119 48.5081 3.69015 51.1523 4.14844Z" fill="#D197D1"/>
<path d="M51.1523 4.14844L51.8355 0.207215L51.8354 0.2072L51.1523 4.14844ZM57.6963 8.2907L60.9663 5.98687L60.9662 5.98684L57.6963 8.2907ZM59.3947 15.847L63.336 16.5301L63.336 16.5301L59.3947 15.847ZM58.3579 21.8291L54.4167 21.146L53.7336 25.0873L57.6748 25.7704L58.3579 21.8291ZM74.3105 24.594L74.9937 20.6528L74.9936 20.6528L74.3105 24.594ZM79.5452 27.9077L82.815 25.6039L82.8149 25.6037L79.5452 27.9077ZM80.9038 33.9531L76.9626 33.2701L76.9626 33.2701L80.9038 33.9531ZM78.1389 49.9057L74.1977 49.2227L73.5146 53.1639L77.4558 53.847L78.1389 49.9057ZM84.121 50.9426L83.4379 54.8838V54.8838L84.121 50.9426ZM90.665 55.0848L93.9349 52.781L93.9349 52.7809L90.665 55.0848ZM92.3634 62.6411L96.3047 63.3243L96.3047 63.3242L92.3634 62.6411ZM88.2212 69.1851L90.5249 72.4551L90.525 72.455L88.2212 69.1851ZM80.6649 70.8835L79.9818 74.8248V74.8248L80.6649 70.8835ZM74.6828 69.8467L75.3659 65.9055L71.4246 65.2224L70.7415 69.1636L74.6828 69.8467ZM71.9179 85.7993L75.8591 86.4825L75.8591 86.4824L71.9179 85.7993ZM68.6042 91.034L70.908 94.3039L70.9081 94.3039L68.6042 91.034ZM62.5597 92.3928L61.8766 96.334L61.8767 96.3341L62.5597 92.3928ZM47.4048 89.7662L43.4635 89.0831L42.7804 93.0243L46.7217 93.7074L47.4048 89.7662ZM48.4416 83.784L52.3828 84.4671L52.3828 84.4671L48.4416 83.784ZM39.5397 71.1495L40.2229 67.2083L40.2228 67.2083L39.5397 71.1495ZM26.9052 80.0514L22.964 79.3682L22.964 79.3683L26.9052 80.0514ZM25.8684 86.0335L25.1853 89.9747L29.1266 90.6578L29.8097 86.7166L25.8684 86.0335ZM10.7135 83.4069L11.3966 79.4656L11.3966 79.4656L10.7135 83.4069ZM5.47791 80.093L2.20791 82.3967L2.20802 82.3969L5.47791 80.093ZM4.11909 74.0485L0.177852 73.3654L0.177841 73.3655L4.11909 74.0485ZM13.105 22.2023L9.16378 21.5192L9.16378 21.5192L13.105 22.2023ZM16.4189 16.9667L14.1151 13.6968L14.115 13.6968L16.4189 16.9667ZM22.4643 15.6081L23.1474 11.6668L23.1474 11.6668L22.4643 15.6081ZM38.4169 18.373L37.7338 22.3142L41.6751 22.9973L42.3582 19.0561L38.4169 18.373ZM39.4537 12.3909L35.5125 11.7077L35.5125 11.7078L39.4537 12.3909ZM43.596 5.84684L41.2922 2.5769L41.2921 2.57694L43.596 5.84684ZM51.1523 4.14844L50.4691 8.08967C52.0682 8.36684 53.4918 9.26796 54.4264 10.5946L57.6963 8.2907L60.9662 5.98684C58.8095 2.92577 55.5249 0.846747 51.8355 0.207215L51.1523 4.14844ZM57.6963 8.2907L54.4264 10.5945C55.3611 11.9212 55.7306 13.565 55.4535 15.1639L59.3947 15.847L63.336 16.5301C63.9754 12.8405 63.1229 9.04789 60.9663 5.98687L57.6963 8.2907ZM59.3947 15.847L55.4535 15.1639L54.4167 21.146L58.3579 21.8291L62.2992 22.5122L63.336 16.5301L59.3947 15.847ZM58.3579 21.8291L57.6748 25.7704L73.6274 28.5352L74.3105 24.594L74.9936 20.6528L59.041 17.8879L58.3579 21.8291ZM74.3105 24.594L73.6273 28.5352C74.697 28.7206 75.6496 29.3236 76.2754 30.2117L79.5452 27.9077L82.8149 25.6037C80.9677 22.9821 78.1546 21.2007 74.9937 20.6528L74.3105 24.594ZM79.5452 27.9077L76.2753 30.2116C76.9007 31.0993 77.1481 32.1997 76.9626 33.2701L80.9038 33.9531L84.845 34.6362C85.3928 31.4756 84.6628 28.2263 82.815 25.6039L79.5452 27.9077ZM80.9038 33.9531L76.9626 33.2701L74.1977 49.2227L78.1389 49.9057L82.0802 50.5888L84.845 34.6362L80.9038 33.9531ZM78.1389 49.9057L77.4558 53.847L83.4379 54.8838L84.121 50.9426L84.8041 47.0013L78.822 45.9645L78.1389 49.9057ZM84.121 50.9426L83.4379 54.8838C85.0368 55.1609 86.4604 56.062 87.3952 57.3887L90.665 55.0848L93.9349 52.7809C91.7782 49.72 88.4938 47.6408 84.8041 47.0013L84.121 50.9426ZM90.665 55.0848L87.3951 57.3887C88.3299 58.7154 88.6993 60.3591 88.4222 61.958L92.3634 62.6411L96.3047 63.3242C96.9442 59.6346 96.0917 55.842 93.9349 52.781L90.665 55.0848ZM92.3634 62.6411L88.4222 61.9579C88.145 63.557 87.2439 64.9806 85.9173 65.9152L88.2212 69.1851L90.525 72.455C93.5861 70.2983 95.6651 67.0137 96.3047 63.3243L92.3634 62.6411ZM88.2212 69.1851L85.9175 65.9151C84.5907 66.8499 82.9467 67.2194 81.348 66.9423L80.6649 70.8835L79.9818 74.8248C83.6714 75.4643 87.4641 74.6115 90.5249 72.4551L88.2212 69.1851ZM80.6649 70.8835L81.348 66.9423L75.3659 65.9055L74.6828 69.8467L73.9997 73.788L79.9818 74.8248L80.6649 70.8835ZM74.6828 69.8467L70.7415 69.1636L67.9766 85.1162L71.9179 85.7993L75.8591 86.4824L78.624 70.5298L74.6828 69.8467ZM71.9179 85.7993L67.9767 85.1161C67.7912 86.186 67.1884 87.1384 66.3003 87.7641L68.6042 91.034L70.9081 94.3039C73.5301 92.4565 75.3112 89.6434 75.8591 86.4825L71.9179 85.7993ZM68.6042 91.034L66.3003 87.7641C65.4123 88.3897 64.3126 88.6369 63.2427 88.4515L62.5597 92.3928L61.8767 96.3341C65.0376 96.8818 68.286 96.1513 70.908 94.3039L68.6042 91.034ZM62.5597 92.3928L63.2428 88.4515L48.0879 85.8249L47.4048 89.7662L46.7217 93.7074L61.8766 96.334L62.5597 92.3928ZM47.4048 89.7662L51.346 90.4492L52.3828 84.4671L48.4416 83.784L44.5003 83.101L43.4635 89.0831L47.4048 89.7662ZM48.4416 83.784L52.3828 84.4671C53.7968 76.3083 48.3815 68.6226 40.2229 67.2083L39.5397 71.1495L38.8566 75.0908C42.662 75.7504 45.1598 79.2956 44.5003 83.101L48.4416 83.784ZM39.5397 71.1495L40.2228 67.2083C32.0639 65.7942 24.3782 71.2095 22.964 79.3682L26.9052 80.0514L30.8465 80.7346C31.5061 76.929 35.0512 74.4312 38.8567 75.0908L39.5397 71.1495ZM26.9052 80.0514L22.964 79.3683L21.9272 85.3504L25.8684 86.0335L29.8097 86.7166L30.8465 80.7345L26.9052 80.0514ZM25.8684 86.0335L26.5515 82.0923L11.3966 79.4656L10.7135 83.4069L10.0304 87.3481L25.1853 89.9747L25.8684 86.0335ZM10.7135 83.4069L11.3966 79.4656C10.3263 79.2801 9.3733 78.6769 8.74781 77.7891L5.47791 80.093L2.20802 82.3969C4.05572 85.0193 6.86982 86.8003 10.0304 87.3481L10.7135 83.4069ZM5.47791 80.093L8.74791 77.7893C8.12216 76.901 7.87498 75.8012 8.06035 74.7315L4.11909 74.0485L0.177841 73.3655C-0.369957 76.5265 0.360843 79.7749 2.20791 82.3967L5.47791 80.093ZM4.11909 74.0485L8.06034 74.7316L17.0463 22.8854L13.105 22.2023L9.16378 21.5192L0.177852 73.3654L4.11909 74.0485ZM13.105 22.2023L17.0463 22.8854C17.2318 21.8151 17.835 20.8621 18.7228 20.2366L16.4189 16.9667L14.115 13.6968C11.4926 15.5445 9.71158 18.3586 9.16378 21.5192L13.105 22.2023ZM16.4189 16.9667L18.7227 20.2366C19.6105 19.6112 20.711 19.3638 21.7812 19.5493L22.4643 15.6081L23.1474 11.6668C19.9868 11.119 16.7375 11.8492 14.1151 13.6968L16.4189 16.9667ZM22.4643 15.6081L21.7812 19.5493L37.7338 22.3142L38.4169 18.373L39.1 14.4317L23.1474 11.6668L22.4643 15.6081ZM38.4169 18.373L42.3582 19.0561L43.395 13.074L39.4537 12.3909L35.5125 11.7078L34.4757 17.6899L38.4169 18.373ZM39.4537 12.3909L43.395 13.074C43.6721 11.475 44.5732 10.0515 45.8999 9.11674L43.596 5.84684L41.2921 2.57694C38.2311 4.73368 36.152 8.01816 35.5125 11.7077L39.4537 12.3909ZM43.596 5.84684L45.8998 9.11679C47.2266 8.18204 48.8704 7.81257 50.4692 8.08968L51.1523 4.14844L51.8354 0.2072C48.1458 -0.432282 44.3532 0.420343 41.2922 2.5769L43.596 5.84684Z" fill="#812981" mask="url(#path-1-outside-1_3291_3102)"/>
</g>
</svg>
