<svg width="97" height="97" viewBox="0 0 97 97" fill="none" xmlns="http://www.w3.org/2000/svg">
<g transform="translate(4 4)">
<path opacity="0.7" d="M47.1523 0.148443C49.7965 0.606795 52.1506 2.09687 53.6963 4.2907C55.242 6.48456 55.853 9.20275 55.3947 11.847L54.3579 17.8291L70.3105 20.594C72.4258 20.9607 74.3086 22.1528 75.5452 23.9077C76.7818 25.6628 77.2705 27.8377 76.9038 29.9531L74.1389 45.9057L80.121 46.9426C82.7653 47.4009 85.1193 48.891 86.665 51.0848C88.2108 53.2787 88.8218 55.9968 88.3634 58.6411C87.9051 61.2854 86.415 63.6394 84.2212 65.1851C82.0274 66.7307 79.309 67.3418 76.6649 66.8835L70.6828 65.8467L67.9179 81.7993C67.5512 83.9147 66.3592 85.7974 64.6042 87.034C62.8491 88.2705 60.6751 88.7593 58.5597 88.3928L43.4048 85.7662L44.4416 79.784C45.4783 73.802 41.5218 68.1865 35.5397 67.1495C29.5576 66.1127 23.9422 70.0692 22.9052 76.0514L21.8684 82.0335L6.71351 79.4069C4.59806 79.0402 2.71451 77.8481 1.47791 76.093C0.2415 74.338 -0.247488 72.1638 0.119094 70.0485L9.10502 18.2023C9.47168 16.0869 10.6638 14.2033 12.4189 12.9667C14.174 11.7302 16.3489 11.2414 18.4643 11.6081L34.4169 14.373L35.4537 8.39086C35.9121 5.74657 37.4021 3.39257 39.596 1.84684C41.7899 0.301192 44.5081 -0.309855 47.1523 0.148443Z" fill="#D197D1"/>
</g>
</svg>
